<svg xmlns="http://www.w3.org/2000/svg" id="canvas" viewBox="297.542 394.327 1119.554 124.999"><path d="M 304.09,409.15 C 303.66 409.94, 303.62 410.93, 303.54 412.91 C 303.45 414.89, 303.41 416.17, 303.66 419.05 C 303.92 421.92, 304.39 423.75, 304.81 427.29 C 305.23 430.83, 305.46 432.78, 305.75 436.75 C 306.04 440.72, 306.13 442.82, 306.26 447.12 C 306.40 451.42, 306.39 453.79, 306.41 458.25 C 306.42 462.71, 306.37 464.97, 306.34 469.42 C 306.32 473.87, 306.31 476.28, 306.27 480.50 C 306.22 484.72, 306.17 486.75, 306.13 490.52 C 306.09 494.30, 306.07 496.10, 306.07 499.36 C 306.07 502.63, 306.04 504.34, 306.11 506.83 C 306.19 509.32, 306.26 510.24, 306.45 511.81 C 306.65 513.39, 306.88 513.87, 307.10 514.72 C 307.33 515.57, 307.32 515.80, 307.59 516.08 C 307.86 516.37, 308.17 516.42, 308.48 516.14 C 308.78 515.86, 308.93 515.57, 309.13 514.69 C 309.33 513.81, 309.38 513.32, 309.48 511.73 C 309.59 510.14, 309.71 509.24, 309.68 506.75 C 309.64 504.27, 309.45 502.54, 309.31 499.29 C 309.17 496.04, 309.04 494.27, 308.96 490.51 C 308.87 486.75, 308.91 484.72, 308.89 480.51 C 308.88 476.29, 308.88 473.88, 308.89 469.43 C 308.91 464.98, 308.96 462.72, 308.98 458.25 C 308.99 453.77, 309.02 451.40, 308.97 447.07 C 308.93 442.74, 308.87 440.61, 308.75 436.60 C 308.64 432.58, 308.55 430.59, 308.40 427.00 C 308.25 423.41, 308.28 421.54, 308.01 418.65 C 307.74 415.77, 307.51 414.51, 307.05 412.57 C 306.58 410.64, 306.28 409.66, 305.69 408.97 C 305.10 408.29, 304.52 408.36, 304.09 409.15" style="stroke: black; fill: black;"/><path d="M 336.83,410.27 C 336.43 410.69, 336.32 411.01, 336.25 412.02 C 336.18 413.03, 336.23 413.76, 336.47 415.30 C 336.71 416.84, 336.97 417.68, 337.45 419.72 C 337.92 421.75, 338.30 422.92, 338.84 425.48 C 339.38 428.04, 339.63 429.49, 340.16 432.50 C 340.69 435.51, 340.98 437.13, 341.48 440.52 C 341.99 443.91, 342.30 445.82, 342.68 449.45 C 343.07 453.07, 343.17 454.90, 343.42 458.64 C 343.66 462.37, 343.68 464.39, 343.92 468.12 C 344.17 471.86, 344.36 473.78, 344.63 477.32 C 344.89 480.86, 345.06 482.69, 345.25 485.81 C 345.44 488.93, 345.39 490.39, 345.58 492.93 C 345.78 495.48, 345.91 496.75, 346.22 498.54 C 346.53 500.32, 346.84 500.89, 347.14 501.87 C 347.45 502.85, 347.45 503.11, 347.75 503.42 C 348.05 503.74, 348.33 503.79, 348.65 503.45 C 348.98 503.12, 349.19 502.78, 349.37 501.74 C 349.55 500.69, 349.59 500.04, 349.57 498.23 C 349.55 496.41, 349.44 495.20, 349.26 492.66 C 349.08 490.13, 348.98 488.67, 348.68 485.54 C 348.38 482.42, 348.11 480.57, 347.76 477.05 C 347.41 473.52, 347.19 471.64, 346.93 467.92 C 346.67 464.20, 346.67 462.20, 346.45 458.45 C 346.23 454.69, 346.15 452.82, 345.85 449.15 C 345.54 445.47, 345.27 443.53, 344.91 440.09 C 344.55 436.65, 344.38 435.03, 344.04 431.94 C 343.70 428.86, 343.64 427.31, 343.21 424.66 C 342.78 422.01, 342.37 420.77, 341.90 418.70 C 341.43 416.62, 341.31 415.80, 340.86 414.30 C 340.40 412.80, 340.16 412.09, 339.63 411.20 C 339.10 410.32, 338.79 410.08, 338.23 409.89 C 337.66 409.70, 337.22 409.84, 336.83 410.27" style="stroke: black; fill: black;"/><path d="M 301.10,470.25 C 301.66 470.61, 302.13 470.51, 303.56 470.59 C 304.99 470.68, 305.90 470.88, 308.25 470.67 C 310.60 470.46, 312.23 470.06, 315.31 469.55 C 318.38 469.03, 320.10 468.67, 323.62 468.12 C 327.13 467.56, 329.12 467.27, 332.88 466.78 C 336.64 466.29, 338.65 466.06, 342.42 465.65 C 346.19 465.24, 348.47 465.18, 351.75 464.74 C 355.04 464.29, 356.59 464.04, 358.86 463.44 C 361.13 462.84, 362.30 462.33, 363.11 461.74 C 363.91 461.16, 363.82 460.76, 362.87 460.51 C 361.92 460.27, 360.68 460.34, 358.37 460.50 C 356.06 460.66, 354.57 460.92, 351.31 461.33 C 348.05 461.74, 345.82 462.08, 342.06 462.55 C 338.30 463.02, 336.28 463.26, 332.51 463.68 C 328.73 464.10, 326.74 464.32, 323.19 464.64 C 319.63 464.97, 317.86 465.01, 314.75 465.30 C 311.65 465.59, 310.00 465.70, 307.66 466.10 C 305.31 466.50, 304.41 466.76, 303.03 467.29 C 301.65 467.83, 301.13 468.20, 300.75 468.79 C 300.36 469.38, 300.54 469.89, 301.10 470.25" style="stroke: black; fill: black;"/><path d="M 389.72,471.34 C 390.42 471.52, 391.02 471.31, 392.41 470.88 C 393.80 470.45, 394.80 470.10, 396.68 469.19 C 398.56 468.29, 399.72 467.68, 401.80 466.36 C 403.87 465.04, 405.08 464.20, 407.04 462.59 C 409.00 460.99, 410.01 460.02, 411.60 458.31 C 413.18 456.61, 413.93 455.74, 414.97 454.06 C 416.01 452.38, 416.43 451.59, 416.79 449.93 C 417.16 448.27, 417.19 447.33, 416.81 445.77 C 416.42 444.20, 415.99 443.35, 414.87 442.12 C 413.75 440.89, 412.97 440.36, 411.21 439.62 C 409.45 438.88, 408.34 438.62, 406.07 438.43 C 403.80 438.24, 402.51 438.19, 399.85 438.69 C 397.19 439.20, 395.67 439.70, 392.77 440.95 C 389.88 442.20, 388.23 443.13, 385.37 444.93 C 382.51 446.74, 381.00 447.69, 378.48 449.98 C 375.96 452.27, 374.68 453.68, 372.76 456.38 C 370.85 459.08, 370.01 460.62, 368.91 463.48 C 367.81 466.34, 367.39 467.78, 367.28 470.70 C 367.18 473.61, 367.28 475.22, 368.39 478.05 C 369.50 480.89, 370.56 482.47, 372.84 484.88 C 375.12 487.30, 376.60 488.38, 379.79 490.14 C 382.98 491.91, 384.87 492.59, 388.77 493.71 C 392.67 494.84, 395.32 495.21, 399.30 495.76 C 403.29 496.31, 405.53 496.54, 408.69 496.48 C 411.84 496.42, 413.80 495.96, 415.07 495.47 C 416.34 494.98, 416.29 494.47, 415.04 494.05 C 413.78 493.63, 411.86 493.66, 408.80 493.37 C 405.74 493.09, 403.57 493.16, 399.73 492.64 C 395.90 492.11, 393.29 491.83, 389.62 490.76 C 385.96 489.70, 384.23 488.97, 381.40 487.31 C 378.57 485.65, 377.37 484.59, 375.46 482.46 C 373.54 480.34, 372.76 479.02, 371.83 476.69 C 370.90 474.37, 370.71 473.21, 370.81 470.83 C 370.91 468.45, 371.35 467.28, 372.32 464.80 C 373.29 462.31, 373.95 460.85, 375.65 458.41 C 377.35 455.97, 378.50 454.66, 380.82 452.59 C 383.15 450.53, 384.59 449.66, 387.29 448.09 C 389.99 446.51, 391.65 445.76, 394.32 444.72 C 396.99 443.67, 398.34 443.29, 400.64 442.86 C 402.93 442.43, 403.95 442.50, 405.80 442.58 C 407.64 442.67, 408.54 442.89, 409.86 443.29 C 411.18 443.68, 411.66 443.91, 412.42 444.56 C 413.18 445.22, 413.40 445.66, 413.65 446.57 C 413.90 447.49, 413.99 448.05, 413.67 449.14 C 413.34 450.23, 413.02 450.78, 412.03 452.04 C 411.05 453.31, 410.27 454.05, 408.74 455.48 C 407.21 456.90, 406.26 457.80, 404.38 459.18 C 402.50 460.57, 401.33 461.21, 399.35 462.40 C 397.37 463.58, 396.21 464.05, 394.46 465.11 C 392.72 466.17, 391.75 466.73, 390.63 467.71 C 389.52 468.69, 389.07 469.28, 388.89 470.01 C 388.70 470.74, 389.01 471.17, 389.72 471.34" style="stroke: black; fill: black;"/><path d="M 441.50,418.33 C 441.14 419.15, 441.38 420.26, 441.39 422.08 C 441.39 423.91, 441.28 424.88, 441.52 427.46 C 441.77 430.04, 442.16 431.87, 442.59 434.97 C 443.03 438.08, 443.31 439.66, 443.69 442.99 C 444.08 446.32, 444.17 448.08, 444.51 451.61 C 444.86 455.14, 445.04 457.08, 445.41 460.63 C 445.79 464.17, 445.97 466.04, 446.39 469.33 C 446.81 472.61, 447.11 474.16, 447.51 477.04 C 447.91 479.92, 448.00 481.32, 448.38 483.73 C 448.75 486.15, 448.91 487.33, 449.37 489.12 C 449.82 490.90, 450.20 491.62, 450.66 492.65 C 451.13 493.68, 451.29 493.99, 451.69 494.28 C 452.09 494.58, 452.38 494.54, 452.66 494.11 C 452.93 493.69, 453.03 493.30, 453.06 492.17 C 453.09 491.04, 453.02 490.27, 452.81 488.48 C 452.61 486.68, 452.36 485.59, 452.02 483.19 C 451.68 480.80, 451.58 479.37, 451.11 476.50 C 450.65 473.64, 450.21 472.11, 449.71 468.86 C 449.22 465.62, 449.03 463.78, 448.64 460.27 C 448.25 456.77, 448.05 454.84, 447.76 451.32 C 447.47 447.80, 447.43 446.03, 447.21 442.67 C 446.99 439.31, 446.91 437.67, 446.66 434.53 C 446.41 431.38, 446.32 429.54, 445.95 426.94 C 445.59 424.34, 445.41 423.34, 444.85 421.54 C 444.29 419.75, 443.83 418.61, 443.16 417.97 C 442.49 417.33, 441.85 417.51, 441.50 418.33" style="stroke: black; fill: black;"/><path d="M 461.31,416.45 C 460.82 417.05, 460.68 417.90, 460.52 419.37 C 460.37 420.84, 460.43 421.70, 460.54 423.80 C 460.65 425.90, 460.78 427.26, 461.08 429.88 C 461.39 432.50, 461.76 433.92, 462.08 436.90 C 462.40 439.88, 462.43 441.54, 462.67 444.77 C 462.91 448.00, 462.95 449.72, 463.30 453.05 C 463.64 456.39, 463.87 458.13, 464.40 461.46 C 464.92 464.80, 465.27 466.56, 465.92 469.73 C 466.57 472.90, 466.86 474.46, 467.64 477.30 C 468.42 480.14, 468.81 481.53, 469.81 483.93 C 470.81 486.33, 471.57 487.68, 472.63 489.28 C 473.69 490.89, 474.26 491.19, 475.11 491.96 C 475.97 492.72, 476.38 492.99, 476.89 493.09 C 477.41 493.19, 477.66 492.95, 477.68 492.45 C 477.71 491.95, 477.40 491.57, 477.01 490.59 C 476.62 489.62, 476.45 489.19, 475.72 487.57 C 474.99 485.94, 474.28 484.73, 473.38 482.47 C 472.48 480.21, 472.03 478.97, 471.22 476.27 C 470.41 473.57, 470.02 472.06, 469.33 469.00 C 468.63 465.93, 468.27 464.18, 467.74 460.93 C 467.22 457.68, 467.00 456.00, 466.71 452.73 C 466.42 449.45, 466.42 447.80, 466.30 444.57 C 466.18 441.34, 466.27 439.63, 466.13 436.60 C 466.00 433.57, 465.88 432.06, 465.64 429.40 C 465.40 426.75, 465.26 425.41, 464.93 423.34 C 464.60 421.28, 464.40 420.47, 464.01 419.08 C 463.62 417.68, 463.50 416.89, 462.96 416.37 C 462.42 415.84, 461.79 415.85, 461.31 416.45" style="stroke: black; fill: black;"/><path d="M 527.54,450.09 C 527.53 449.34, 527.04 448.58, 526.23 447.62 C 525.42 446.66, 524.99 446.13, 523.50 445.31 C 522.00 444.48, 520.79 443.87, 518.75 443.47 C 516.72 443.08, 515.58 443.13, 513.34 443.33 C 511.10 443.53, 509.91 443.83, 507.55 444.48 C 505.19 445.12, 503.83 445.51, 501.53 446.56 C 499.24 447.62, 498.13 448.38, 496.08 449.76 C 494.02 451.15, 493.04 451.82, 491.24 453.49 C 489.45 455.15, 488.44 456.10, 487.09 458.09 C 485.74 460.08, 485.14 461.27, 484.50 463.45 C 483.86 465.63, 483.75 466.80, 483.90 469.00 C 484.05 471.19, 484.26 472.27, 485.26 474.42 C 486.26 476.56, 486.96 477.75, 488.90 479.71 C 490.84 481.67, 492.17 482.75, 494.95 484.24 C 497.74 485.72, 499.39 486.27, 502.83 487.15 C 506.27 488.02, 508.28 488.35, 512.13 488.62 C 515.99 488.88, 518.22 488.83, 522.10 488.49 C 525.97 488.15, 527.97 487.77, 531.50 486.92 C 535.04 486.07, 536.84 485.53, 539.76 484.24 C 542.67 482.95, 544.01 482.13, 546.07 480.47 C 548.14 478.81, 548.86 477.91, 550.08 475.96 C 551.30 474.01, 551.83 472.92, 552.16 470.71 C 552.49 468.50, 552.30 467.14, 551.74 464.90 C 551.17 462.67, 550.45 461.52, 549.34 459.54 C 548.22 457.56, 547.64 456.75, 546.16 454.98 C 544.68 453.22, 543.68 452.09, 541.93 450.70 C 540.17 449.32, 539.01 448.75, 537.39 448.07 C 535.76 447.38, 534.63 447.18, 533.78 447.28 C 532.92 447.38, 532.75 447.81, 533.11 448.55 C 533.47 449.29, 534.36 449.90, 535.59 450.97 C 536.81 452.05, 537.73 452.62, 539.23 453.94 C 540.73 455.27, 541.77 456.10, 543.10 457.61 C 544.44 459.12, 544.95 459.82, 545.92 461.49 C 546.90 463.16, 547.41 464.20, 547.98 465.97 C 548.54 467.73, 548.88 468.65, 548.75 470.30 C 548.63 471.96, 548.30 472.73, 547.34 474.23 C 546.38 475.72, 545.75 476.39, 543.95 477.76 C 542.15 479.14, 540.98 479.88, 538.34 481.10 C 535.69 482.31, 534.04 482.99, 530.73 483.85 C 527.43 484.71, 525.50 485.10, 521.83 485.42 C 518.16 485.73, 516.00 485.76, 512.39 485.44 C 508.77 485.11, 506.86 484.73, 503.75 483.80 C 500.65 482.87, 499.27 482.18, 496.87 480.78 C 494.48 479.38, 493.42 478.42, 491.76 476.82 C 490.09 475.22, 489.41 474.39, 488.55 472.78 C 487.68 471.17, 487.52 470.41, 487.42 468.77 C 487.32 467.12, 487.48 466.25, 488.05 464.56 C 488.63 462.87, 489.13 461.95, 490.29 460.31 C 491.46 458.66, 492.29 457.80, 493.88 456.35 C 495.47 454.91, 496.38 454.27, 498.25 453.07 C 500.12 451.88, 501.16 451.28, 503.24 450.38 C 505.33 449.47, 506.58 449.11, 508.67 448.53 C 510.75 447.96, 511.84 447.65, 513.69 447.50 C 515.53 447.36, 516.30 447.49, 517.89 447.81 C 519.48 448.14, 520.40 448.64, 521.63 449.14 C 522.86 449.64, 523.13 449.87, 524.05 450.31 C 524.98 450.76, 525.56 451.41, 526.25 451.37 C 526.95 451.32, 527.54 450.84, 527.54 450.09" style="stroke: black; fill: black;"/><path d="M 589.76,485.98 C 589.09 486.43, 588.68 487.28, 588.02 488.69 C 587.37 490.09, 587.04 490.99, 586.47 493.00 C 585.90 495.01, 585.67 496.50, 585.18 498.72 C 584.69 500.94, 584.37 502.23, 584.04 504.12 C 583.71 506.00, 583.60 506.76, 583.54 508.16 C 583.48 509.56, 583.45 510.47, 583.75 511.11 C 584.05 511.76, 584.53 511.83, 585.05 511.37 C 585.57 510.92, 585.76 510.08, 586.35 508.85 C 586.94 507.63, 587.28 507.04, 588.00 505.24 C 588.72 503.45, 589.35 502.13, 589.95 499.87 C 590.55 497.62, 590.68 496.04, 590.99 493.97 C 591.30 491.91, 591.41 491.07, 591.49 489.56 C 591.57 488.06, 591.73 487.15, 591.39 486.43 C 591.04 485.72, 590.43 485.53, 589.76 485.98" style="stroke: black; fill: black;"/><path d="M 680.36,404.61 C 680.01 405.47, 680.08 406.59, 680.22 408.56 C 680.37 410.52, 680.53 411.76, 681.09 414.44 C 681.64 417.12, 682.30 418.82, 682.99 421.96 C 683.69 425.10, 684.03 426.61, 684.55 430.13 C 685.07 433.65, 685.20 435.72, 685.59 439.56 C 685.99 443.40, 686.24 445.40, 686.52 449.35 C 686.79 453.30, 686.77 455.35, 686.98 459.32 C 687.18 463.29, 687.30 465.55, 687.53 469.19 C 687.76 472.83, 687.76 474.52, 688.12 477.50 C 688.48 480.48, 688.78 482.03, 689.34 484.11 C 689.91 486.18, 690.38 486.82, 690.92 487.88 C 691.46 488.94, 691.67 489.15, 692.05 489.41 C 692.44 489.67, 692.67 489.60, 692.86 489.18 C 693.06 488.77, 693.07 488.48, 693.03 487.33 C 693.00 486.18, 692.96 485.49, 692.68 483.43 C 692.40 481.37, 692.06 479.93, 691.64 477.04 C 691.23 474.14, 690.96 472.52, 690.60 468.94 C 690.25 465.37, 690.10 463.11, 689.86 459.16 C 689.62 455.20, 689.64 453.13, 689.39 449.15 C 689.14 445.18, 688.90 443.17, 688.59 439.29 C 688.28 435.40, 688.19 433.33, 687.83 429.73 C 687.47 426.13, 687.26 424.52, 686.80 421.27 C 686.33 418.02, 686.13 416.17, 685.51 413.47 C 684.89 410.78, 684.42 409.62, 683.71 407.78 C 683.01 405.94, 682.65 404.90, 681.98 404.26 C 681.31 403.63, 680.71 403.75, 680.36 404.61" style="stroke: black; fill: black;"/><path d="M 735.88,397.60 C 735.30 398.01, 735.09 398.80, 734.81 399.77 C 734.52 400.74, 734.57 401.24, 734.44 402.44 C 734.32 403.64, 734.28 404.35, 734.17 405.76 C 734.07 407.18, 734.04 407.89, 733.93 409.52 C 733.82 411.15, 733.66 412.11, 733.62 413.92 C 733.57 415.72, 733.55 416.91, 733.70 418.55 C 733.85 420.18, 734.03 420.89, 734.37 422.10 C 734.71 423.31, 734.90 424.10, 735.39 424.59 C 735.87 425.07, 736.36 425.04, 736.79 424.51 C 737.22 423.99, 737.32 423.16, 737.54 421.95 C 737.77 420.75, 737.82 420.07, 737.93 418.49 C 738.03 416.91, 738.04 415.78, 738.08 414.04 C 738.13 412.29, 738.10 411.35, 738.16 409.76 C 738.23 408.16, 738.33 407.47, 738.42 406.05 C 738.51 404.64, 738.60 403.89, 738.61 402.68 C 738.62 401.46, 738.65 400.96, 738.47 399.97 C 738.29 398.98, 738.23 398.20, 737.71 397.72 C 737.19 397.25, 736.46 397.19, 735.88 397.60" style="stroke: black; fill: black;"/><path d="M 772.40,441.63 C 772.04 442.13, 772.10 442.59, 772.08 443.60 C 772.06 444.60, 772.13 445.19, 772.30 446.65 C 772.48 448.12, 772.69 449.00, 772.96 450.92 C 773.24 452.85, 773.37 453.99, 773.68 456.27 C 773.98 458.56, 774.17 459.88, 774.48 462.34 C 774.79 464.79, 774.97 466.13, 775.23 468.55 C 775.49 470.97, 775.54 472.18, 775.79 474.44 C 776.03 476.69, 776.14 477.86, 776.45 479.81 C 776.76 481.76, 776.88 482.84, 777.35 484.18 C 777.83 485.53, 778.13 486.05, 778.82 486.55 C 779.51 487.04, 780.07 487.08, 780.82 486.65 C 781.57 486.22, 782.08 485.73, 782.55 484.41 C 783.01 483.10, 783.01 482.01, 783.13 480.08 C 783.25 478.15, 783.03 477.01, 783.14 474.78 C 783.25 472.54, 783.36 471.29, 783.68 468.93 C 784.00 466.57, 784.20 465.26, 784.75 462.97 C 785.29 460.68, 785.65 459.61, 786.42 457.50 C 787.19 455.39, 787.61 454.25, 788.58 452.43 C 789.56 450.60, 790.09 449.87, 791.28 448.38 C 792.46 446.90, 793.19 446.15, 794.49 444.99 C 795.80 443.84, 796.44 443.27, 797.80 442.61 C 799.15 441.95, 799.90 441.82, 801.27 441.68 C 802.64 441.55, 803.39 441.53, 804.65 441.93 C 805.91 442.32, 806.43 442.69, 807.57 443.67 C 808.71 444.65, 809.33 445.41, 810.36 446.83 C 811.38 448.25, 811.85 448.99, 812.69 450.76 C 813.52 452.54, 813.86 453.63, 814.52 455.73 C 815.17 457.83, 815.46 458.99, 815.95 461.27 C 816.45 463.55, 816.62 464.82, 816.98 467.13 C 817.35 469.45, 817.47 470.81, 817.77 472.84 C 818.06 474.86, 818.14 475.87, 818.46 477.26 C 818.78 478.64, 818.87 479.13, 819.37 479.75 C 819.88 480.38, 820.30 480.51, 821.00 480.38 C 821.69 480.26, 822.18 480.03, 822.84 479.12 C 823.49 478.21, 823.77 477.45, 824.29 475.82 C 824.80 474.19, 824.83 473.06, 825.41 470.97 C 825.99 468.88, 826.22 467.62, 827.18 465.36 C 828.14 463.10, 828.85 461.84, 830.21 459.67 C 831.57 457.50, 832.31 456.46, 833.98 454.51 C 835.65 452.57, 836.62 451.56, 838.56 449.95 C 840.50 448.35, 841.66 447.64, 843.66 446.49 C 845.66 445.33, 846.66 444.74, 848.57 444.17 C 850.48 443.60, 851.48 443.45, 853.22 443.62 C 854.96 443.78, 855.74 444.15, 857.27 445.01 C 858.80 445.87, 859.55 446.49, 860.86 447.92 C 862.18 449.34, 862.73 450.24, 863.86 452.16 C 864.99 454.07, 865.49 455.19, 866.52 457.47 C 867.56 459.76, 868.13 461.06, 869.06 463.58 C 869.99 466.10, 870.27 467.49, 871.18 470.07 C 872.09 472.65, 872.67 474.14, 873.61 476.47 C 874.55 478.80, 875.08 479.98, 875.87 481.73 C 876.67 483.48, 876.90 484.05, 877.58 485.23 C 878.27 486.41, 878.71 487.26, 879.30 487.64 C 879.90 488.02, 880.38 487.82, 880.55 487.14 C 880.72 486.47, 880.41 485.60, 880.15 484.27 C 879.89 482.93, 879.80 482.32, 879.25 480.47 C 878.71 478.62, 878.27 477.38, 877.44 475.02 C 876.60 472.67, 875.98 471.27, 875.08 468.70 C 874.19 466.12, 873.91 464.74, 872.95 462.15 C 871.99 459.55, 871.42 458.15, 870.29 455.73 C 869.15 453.32, 868.61 452.15, 867.28 450.05 C 865.95 447.96, 865.29 446.89, 863.63 445.24 C 861.97 443.59, 860.99 442.83, 858.98 441.80 C 856.97 440.77, 855.85 440.32, 853.57 440.09 C 851.29 439.85, 849.95 440.02, 847.59 440.62 C 845.23 441.22, 844.08 441.85, 841.77 443.10 C 839.46 444.35, 838.20 445.12, 836.04 446.87 C 833.88 448.63, 832.83 449.78, 830.96 451.88 C 829.10 453.98, 828.29 455.06, 826.72 457.39 C 825.14 459.71, 824.28 461.07, 823.10 463.51 C 821.93 465.95, 821.58 467.36, 820.84 469.58 C 820.11 471.80, 819.75 472.87, 819.42 474.60 C 819.10 476.32, 819.03 477.15, 819.20 478.21 C 819.36 479.26, 819.83 479.62, 820.26 479.88 C 820.69 480.13, 821.00 480.06, 821.35 479.48 C 821.69 478.90, 821.88 478.40, 821.98 476.97 C 822.07 475.55, 822.00 474.48, 821.83 472.38 C 821.66 470.28, 821.49 468.89, 821.12 466.49 C 820.75 464.09, 820.53 462.78, 820.00 460.38 C 819.46 457.98, 819.18 456.76, 818.45 454.49 C 817.73 452.22, 817.34 451.03, 816.36 449.01 C 815.39 447.00, 814.86 446.10, 813.59 444.43 C 812.31 442.76, 811.56 441.85, 809.98 440.65 C 808.40 439.46, 807.50 438.98, 805.69 438.46 C 803.88 437.94, 802.83 437.89, 800.93 438.05 C 799.04 438.21, 798.01 438.46, 796.22 439.28 C 794.44 440.10, 793.59 440.79, 792.01 442.15 C 790.43 443.50, 789.69 444.35, 788.33 446.04 C 786.98 447.73, 786.36 448.59, 785.24 450.61 C 784.12 452.62, 783.62 453.84, 782.74 456.11 C 781.85 458.38, 781.48 459.54, 780.82 461.96 C 780.16 464.39, 779.90 465.76, 779.43 468.24 C 778.97 470.72, 778.81 472.04, 778.51 474.36 C 778.21 476.69, 777.99 477.91, 777.95 479.86 C 777.90 481.82, 777.99 482.89, 778.29 484.14 C 778.59 485.39, 779.00 485.76, 779.44 486.11 C 779.88 486.46, 780.22 486.40, 780.51 485.88 C 780.80 485.36, 780.93 484.83, 780.89 483.51 C 780.85 482.18, 780.56 481.14, 780.32 479.25 C 780.08 477.36, 779.89 476.26, 779.69 474.05 C 779.49 471.83, 779.50 470.61, 779.32 468.18 C 779.14 465.74, 779.02 464.34, 778.78 461.86 C 778.53 459.37, 778.35 458.06, 778.10 455.74 C 777.85 453.42, 777.81 452.26, 777.52 450.27 C 777.23 448.28, 777.08 447.30, 776.66 445.78 C 776.24 444.27, 775.98 443.61, 775.43 442.68 C 774.88 441.75, 774.52 441.33, 773.91 441.12 C 773.30 440.91, 772.77 441.13, 772.40 441.63" style="stroke: black; fill: black;"/><path d="M 978.69,410.03 C 978.08 410.64, 977.76 411.67, 977.34 413.31 C 976.91 414.95, 976.77 415.94, 976.55 418.21 C 976.34 420.48, 976.38 421.89, 976.25 424.67 C 976.13 427.45, 976.06 428.94, 975.91 432.10 C 975.75 435.25, 975.60 436.99, 975.49 440.46 C 975.39 443.93, 975.32 445.77, 975.38 449.44 C 975.43 453.10, 975.56 455.02, 975.76 458.78 C 975.95 462.54, 976.05 464.59, 976.35 468.25 C 976.64 471.92, 976.78 473.71, 977.23 477.12 C 977.68 480.53, 977.91 482.23, 978.59 485.30 C 979.28 488.37, 979.65 489.94, 980.67 492.47 C 981.68 495.01, 982.34 496.03, 983.68 497.96 C 985.02 499.89, 985.71 500.71, 987.35 502.12 C 988.99 503.52, 989.91 504.14, 991.88 504.97 C 993.84 505.80, 994.92 506.01, 997.18 506.27 C 999.43 506.53, 1000.66 506.52, 1003.14 506.26 C 1005.61 505.99, 1006.93 505.66, 1009.55 504.94 C 1012.18 504.21, 1013.51 503.67, 1016.26 502.63 C 1019.01 501.58, 1020.61 500.95, 1023.31 499.70 C 1026.01 498.44, 1027.32 497.63, 1029.77 496.34 C 1032.21 495.06, 1033.32 494.49, 1035.54 493.28 C 1037.75 492.06, 1039.08 491.46, 1040.84 490.27 C 1042.60 489.08, 1043.31 488.36, 1044.34 487.31 C 1045.37 486.27, 1045.80 485.69, 1045.99 485.04 C 1046.18 484.40, 1045.93 484.11, 1045.28 484.10 C 1044.62 484.09, 1043.99 484.41, 1042.71 484.99 C 1041.42 485.57, 1040.66 486.03, 1038.85 487.00 C 1037.05 487.98, 1035.87 488.70, 1033.69 489.87 C 1031.51 491.04, 1030.36 491.61, 1027.95 492.85 C 1025.54 494.09, 1024.27 494.88, 1021.64 496.06 C 1019.01 497.25, 1017.46 497.80, 1014.81 498.77 C 1012.17 499.75, 1010.87 500.26, 1008.43 500.95 C 1006.00 501.64, 1004.83 501.94, 1002.65 502.24 C 1000.47 502.54, 999.41 502.57, 997.52 502.45 C 995.63 502.33, 994.79 502.24, 993.20 501.65 C 991.62 501.06, 990.91 500.62, 989.57 499.50 C 988.24 498.37, 987.62 497.71, 986.52 496.03 C 985.41 494.36, 984.96 493.44, 984.05 491.13 C 983.14 488.82, 982.71 487.39, 981.98 484.49 C 981.25 481.60, 980.91 479.97, 980.40 476.67 C 979.89 473.37, 979.73 471.60, 979.42 468.00 C 979.10 464.39, 979.00 462.35, 978.82 458.63 C 978.65 454.92, 978.53 453.02, 978.54 449.42 C 978.55 445.82, 978.65 444.03, 978.88 440.63 C 979.12 437.23, 979.34 435.54, 979.71 432.41 C 980.07 429.28, 980.49 427.76, 980.73 424.97 C 980.97 422.17, 980.87 420.71, 980.90 418.45 C 980.93 416.19, 980.99 415.30, 980.89 413.66 C 980.79 412.02, 980.83 410.97, 980.39 410.24 C 979.95 409.52, 979.30 409.41, 978.69 410.03" style="stroke: black; fill: black;"/><path d="M 1063.87,471.26 C 1064.55 471.45, 1065.27 471.27, 1066.36 470.82 C 1067.44 470.37, 1068.07 469.86, 1069.29 469.01 C 1070.50 468.15, 1071.24 467.56, 1072.43 466.53 C 1073.62 465.51, 1074.23 465.02, 1075.24 463.86 C 1076.26 462.70, 1076.76 461.96, 1077.50 460.73 C 1078.23 459.51, 1078.55 459.03, 1078.94 457.74 C 1079.33 456.45, 1079.56 455.67, 1079.45 454.27 C 1079.34 452.87, 1079.09 452.02, 1078.38 450.74 C 1077.68 449.46, 1077.18 448.88, 1075.92 447.88 C 1074.66 446.87, 1073.91 446.33, 1072.10 445.71 C 1070.30 445.09, 1069.13 444.86, 1066.89 444.78 C 1064.65 444.69, 1063.35 444.81, 1060.90 445.26 C 1058.44 445.71, 1057.18 446.12, 1054.63 447.03 C 1052.08 447.93, 1050.65 448.46, 1048.15 449.77 C 1045.64 451.08, 1044.29 451.80, 1042.12 453.58 C 1039.94 455.36, 1038.95 456.53, 1037.26 458.67 C 1035.58 460.81, 1034.70 461.91, 1033.69 464.29 C 1032.68 466.68, 1032.37 468.09, 1032.21 470.60 C 1032.05 473.11, 1032.29 474.52, 1032.89 476.85 C 1033.49 479.18, 1033.85 480.16, 1035.21 482.26 C 1036.57 484.37, 1037.48 485.55, 1039.68 487.35 C 1041.87 489.15, 1043.26 489.91, 1046.18 491.26 C 1049.10 492.62, 1050.77 493.21, 1054.27 494.11 C 1057.78 495.01, 1059.80 495.34, 1063.72 495.77 C 1067.63 496.20, 1069.76 496.27, 1073.86 496.27 C 1077.97 496.27, 1080.14 496.14, 1084.24 495.78 C 1088.35 495.42, 1090.78 495.06, 1094.38 494.45 C 1097.98 493.84, 1099.65 493.48, 1102.23 492.74 C 1104.82 492.01, 1105.77 491.56, 1107.29 490.76 C 1108.82 489.96, 1109.44 489.34, 1109.86 488.74 C 1110.28 488.14, 1110.05 487.81, 1109.37 487.75 C 1108.69 487.68, 1108.07 488.11, 1106.46 488.43 C 1104.86 488.74, 1103.88 488.73, 1101.35 489.32 C 1098.82 489.90, 1097.28 490.63, 1093.80 491.35 C 1090.33 492.07, 1087.95 492.50, 1083.97 492.91 C 1079.98 493.32, 1077.85 493.44, 1073.88 493.40 C 1069.90 493.37, 1067.83 493.24, 1064.09 492.74 C 1060.34 492.23, 1058.42 491.86, 1055.17 490.88 C 1051.92 489.90, 1050.44 489.18, 1047.84 487.85 C 1045.24 486.53, 1044.10 485.79, 1042.18 484.26 C 1040.27 482.73, 1039.42 481.88, 1038.27 480.22 C 1037.12 478.56, 1036.88 477.83, 1036.42 475.96 C 1035.97 474.08, 1035.84 472.89, 1035.98 470.85 C 1036.12 468.81, 1036.26 467.72, 1037.12 465.77 C 1037.98 463.82, 1038.79 462.92, 1040.29 461.10 C 1041.79 459.29, 1042.67 458.23, 1044.62 456.70 C 1046.57 455.17, 1047.75 454.59, 1050.03 453.45 C 1052.31 452.32, 1053.70 451.82, 1056.03 451.01 C 1058.35 450.21, 1059.51 449.83, 1061.65 449.45 C 1063.80 449.07, 1064.91 449.07, 1066.76 449.10 C 1068.61 449.14, 1069.53 449.26, 1070.90 449.62 C 1072.28 449.98, 1072.79 450.29, 1073.64 450.88 C 1074.49 451.47, 1074.69 451.83, 1075.13 452.57 C 1075.57 453.32, 1075.73 453.79, 1075.83 454.62 C 1075.93 455.44, 1075.92 455.87, 1075.63 456.68 C 1075.35 457.50, 1075.05 457.81, 1074.40 458.69 C 1073.75 459.58, 1073.32 460.23, 1072.38 461.10 C 1071.44 461.96, 1070.89 462.19, 1069.69 463.02 C 1068.49 463.86, 1067.50 464.31, 1066.37 465.28 C 1065.25 466.25, 1064.76 466.95, 1064.07 467.88 C 1063.38 468.80, 1062.98 469.22, 1062.94 469.90 C 1062.90 470.57, 1063.19 471.08, 1063.87 471.26" style="stroke: black; fill: black;"/><path d="M 1137.47,460.17 C 1137.70 459.47, 1137.56 458.70, 1137.14 457.56 C 1136.73 456.41, 1136.31 455.65, 1135.38 454.44 C 1134.46 453.23, 1133.84 452.54, 1132.52 451.51 C 1131.20 450.49, 1130.43 450.09, 1128.78 449.34 C 1127.14 448.58, 1126.26 448.13, 1124.29 447.73 C 1122.32 447.33, 1121.13 447.34, 1118.93 447.35 C 1116.72 447.37, 1115.65 447.40, 1113.26 447.81 C 1110.88 448.23, 1109.44 448.54, 1106.99 449.42 C 1104.55 450.31, 1103.33 450.91, 1101.05 452.25 C 1098.76 453.59, 1097.61 454.33, 1095.57 456.13 C 1093.52 457.92, 1092.38 459.04, 1090.82 461.22 C 1089.26 463.39, 1088.59 464.64, 1087.78 467.00 C 1086.96 469.37, 1086.69 470.64, 1086.74 473.03 C 1086.79 475.41, 1087.08 476.72, 1088.03 478.93 C 1088.98 481.14, 1089.73 482.24, 1091.51 484.07 C 1093.29 485.89, 1094.48 486.77, 1096.94 488.05 C 1099.41 489.34, 1100.99 489.85, 1103.84 490.50 C 1106.69 491.14, 1108.26 491.32, 1111.20 491.29 C 1114.15 491.25, 1115.72 491.02, 1118.54 490.33 C 1121.36 489.64, 1122.77 489.11, 1125.30 487.82 C 1127.82 486.54, 1129.08 485.71, 1131.17 483.91 C 1133.27 482.10, 1134.26 480.94, 1135.78 478.81 C 1137.29 476.68, 1137.77 475.50, 1138.77 473.26 C 1139.76 471.03, 1140.12 469.90, 1140.74 467.63 C 1141.37 465.35, 1141.77 464.06, 1141.91 461.89 C 1142.05 459.72, 1141.94 458.33, 1141.46 456.76 C 1140.98 455.19, 1140.41 454.43, 1139.50 454.04 C 1138.59 453.65, 1137.77 453.89, 1136.91 454.81 C 1136.05 455.72, 1135.48 456.72, 1135.21 458.62 C 1134.94 460.52, 1135.23 461.94, 1135.56 464.31 C 1135.90 466.69, 1136.20 467.96, 1136.88 470.50 C 1137.56 473.04, 1137.89 474.48, 1138.96 476.99 C 1140.03 479.51, 1140.74 480.86, 1142.22 483.07 C 1143.70 485.28, 1144.56 486.27, 1146.35 488.04 C 1148.15 489.82, 1149.17 490.67, 1151.20 491.94 C 1153.22 493.21, 1154.32 493.81, 1156.47 494.39 C 1158.61 494.98, 1160.02 495.01, 1161.93 494.87 C 1163.84 494.72, 1164.78 494.30, 1166.02 493.66 C 1167.25 493.02, 1167.81 492.29, 1168.10 491.66 C 1168.39 491.02, 1168.08 490.65, 1167.48 490.49 C 1166.88 490.32, 1166.25 490.72, 1165.11 490.84 C 1163.97 490.95, 1163.33 491.10, 1161.80 491.07 C 1160.27 491.05, 1159.18 491.18, 1157.46 490.72 C 1155.74 490.26, 1154.89 489.84, 1153.21 488.77 C 1151.54 487.69, 1150.61 486.90, 1149.08 485.33 C 1147.54 483.76, 1146.79 482.89, 1145.54 480.91 C 1144.29 478.93, 1143.69 477.72, 1142.81 475.43 C 1141.94 473.15, 1141.64 471.85, 1141.18 469.49 C 1140.71 467.14, 1140.77 465.82, 1140.49 463.65 C 1140.21 461.48, 1140.04 460.24, 1139.80 458.65 C 1139.55 457.05, 1139.51 456.40, 1139.25 455.66 C 1139.00 454.91, 1138.81 454.61, 1138.53 454.92 C 1138.24 455.22, 1137.99 455.85, 1137.85 457.18 C 1137.71 458.52, 1137.99 459.68, 1137.83 461.58 C 1137.66 463.47, 1137.50 464.62, 1137.00 466.65 C 1136.51 468.68, 1136.19 469.76, 1135.33 471.75 C 1134.46 473.73, 1134.00 474.73, 1132.67 476.58 C 1131.33 478.42, 1130.47 479.40, 1128.64 480.96 C 1126.82 482.52, 1125.75 483.27, 1123.55 484.38 C 1121.35 485.49, 1120.10 485.94, 1117.63 486.52 C 1115.16 487.09, 1113.76 487.27, 1111.19 487.26 C 1108.62 487.25, 1107.25 487.03, 1104.77 486.45 C 1102.28 485.88, 1100.90 485.42, 1098.79 484.40 C 1096.68 483.37, 1095.69 482.72, 1094.21 481.33 C 1092.73 479.94, 1092.16 479.11, 1091.38 477.44 C 1090.60 475.76, 1090.35 474.80, 1090.33 472.97 C 1090.31 471.14, 1090.55 470.17, 1091.29 468.29 C 1092.03 466.42, 1092.65 465.41, 1094.04 463.58 C 1095.42 461.76, 1096.41 460.73, 1098.22 459.15 C 1100.02 457.58, 1101.02 456.88, 1103.06 455.71 C 1105.09 454.55, 1106.20 454.10, 1108.39 453.34 C 1110.57 452.58, 1111.86 452.29, 1113.98 451.91 C 1116.10 451.54, 1117.07 451.50, 1118.98 451.47 C 1120.89 451.43, 1121.90 451.45, 1123.53 451.74 C 1125.16 452.02, 1125.86 452.30, 1127.13 452.90 C 1128.40 453.50, 1128.92 453.86, 1129.88 454.72 C 1130.84 455.58, 1131.11 456.21, 1131.92 457.19 C 1132.73 458.17, 1133.11 458.85, 1133.93 459.62 C 1134.74 460.39, 1135.28 460.93, 1135.99 461.04 C 1136.70 461.15, 1137.24 460.87, 1137.47 460.17" style="stroke: black; fill: black;"/><path d="M 1164.39,459.98 C 1163.84 460.38, 1162.99 460.86, 1163.01 461.88 C 1163.04 462.91, 1163.61 464.61, 1164.50 465.11 C 1165.39 465.62, 1166.91 465.21, 1167.49 464.40 C 1168.07 463.59, 1167.74 461.97, 1167.40 461.07 C 1167.07 460.16, 1166.40 460.10, 1165.80 459.88 C 1165.20 459.66, 1164.95 459.58, 1164.39 459.98" style="stroke: black; fill: black;"/><path d="M 1168.97,466.41 C 1169.86 466.35, 1170.74 465.65, 1172.31 464.84 C 1173.87 464.03, 1174.86 463.34, 1176.78 462.36 C 1178.70 461.39, 1179.84 460.76, 1181.90 459.96 C 1183.97 459.16, 1185.04 458.78, 1187.11 458.35 C 1189.17 457.92, 1190.31 457.85, 1192.21 457.81 C 1194.12 457.76, 1195.12 457.79, 1196.64 458.12 C 1198.15 458.45, 1198.74 458.59, 1199.77 459.45 C 1200.80 460.30, 1201.10 460.96, 1201.80 462.40 C 1202.49 463.85, 1202.78 464.82, 1203.24 466.68 C 1203.71 468.54, 1203.77 469.62, 1204.12 471.72 C 1204.48 473.81, 1204.60 474.99, 1205.04 477.18 C 1205.48 479.37, 1205.67 480.60, 1206.32 482.68 C 1206.96 484.75, 1207.42 485.77, 1208.28 487.56 C 1209.14 489.35, 1209.52 490.13, 1210.62 491.62 C 1211.71 493.12, 1212.17 494.09, 1213.75 495.02 C 1215.33 495.94, 1217.40 496.37, 1218.51 496.24 C 1219.63 496.10, 1219.87 495.19, 1219.33 494.34 C 1218.79 493.49, 1216.99 492.93, 1215.81 491.98 C 1214.63 491.04, 1214.26 490.80, 1213.44 489.61 C 1212.62 488.42, 1212.38 487.64, 1211.72 486.02 C 1211.06 484.41, 1210.68 483.47, 1210.14 481.54 C 1209.61 479.62, 1209.44 478.52, 1209.05 476.41 C 1208.67 474.31, 1208.58 473.19, 1208.22 471.02 C 1207.86 468.86, 1207.88 467.67, 1207.26 465.58 C 1206.64 463.49, 1206.20 462.31, 1205.13 460.56 C 1204.05 458.81, 1203.38 457.99, 1201.87 456.81 C 1200.35 455.64, 1199.47 455.26, 1197.54 454.69 C 1195.61 454.11, 1194.45 454.00, 1192.22 453.95 C 1189.99 453.89, 1188.74 454.04, 1186.39 454.42 C 1184.03 454.80, 1182.77 455.06, 1180.42 455.85 C 1178.07 456.64, 1176.69 457.19, 1174.62 458.38 C 1172.55 459.57, 1171.41 460.44, 1170.05 461.80 C 1168.69 463.15, 1168.06 464.21, 1167.84 465.14 C 1167.62 466.06, 1168.08 466.47, 1168.97 466.41" style="stroke: black; fill: black;"/><path d="M 1268.09,467.86 C 1268.25 467.18, 1268.10 466.47, 1267.55 465.42 C 1267.01 464.37, 1266.55 463.71, 1265.38 462.60 C 1264.20 461.49, 1263.34 460.78, 1261.69 459.87 C 1260.04 458.95, 1259.06 458.61, 1257.13 458.03 C 1255.19 457.46, 1254.06 457.17, 1252.03 456.98 C 1249.99 456.79, 1248.95 456.86, 1246.94 457.09 C 1244.93 457.32, 1243.89 457.53, 1241.98 458.14 C 1240.07 458.75, 1239.14 459.11, 1237.38 460.13 C 1235.62 461.16, 1234.70 461.84, 1233.16 463.28 C 1231.63 464.72, 1230.84 465.49, 1229.70 467.33 C 1228.57 469.17, 1228.00 470.28, 1227.49 472.49 C 1226.99 474.70, 1226.91 476.10, 1227.17 478.38 C 1227.44 480.66, 1227.81 481.72, 1228.82 483.90 C 1229.83 486.08, 1230.52 487.35, 1232.22 489.29 C 1233.92 491.23, 1235.07 492.25, 1237.31 493.59 C 1239.55 494.93, 1240.87 495.27, 1243.44 496.01 C 1246.01 496.74, 1247.43 497.11, 1250.15 497.25 C 1252.87 497.39, 1254.34 497.22, 1257.03 496.72 C 1259.71 496.22, 1261.09 495.85, 1263.57 494.74 C 1266.06 493.64, 1267.27 492.91, 1269.46 491.19 C 1271.64 489.47, 1272.72 488.39, 1274.49 486.13 C 1276.25 483.86, 1276.95 482.56, 1278.30 479.85 C 1279.65 477.14, 1280.39 475.59, 1281.23 472.57 C 1282.07 469.56, 1282.23 467.90, 1282.49 464.79 C 1282.75 461.68, 1282.61 460.08, 1282.52 457.03 C 1282.42 453.98, 1282.37 452.45, 1282.01 449.53 C 1281.66 446.61, 1281.35 445.09, 1280.74 442.43 C 1280.13 439.77, 1279.67 438.54, 1278.95 436.22 C 1278.24 433.90, 1277.85 432.75, 1277.18 430.82 C 1276.51 428.90, 1276.34 427.90, 1275.61 426.58 C 1274.89 425.27, 1274.35 424.58, 1273.56 424.24 C 1272.77 423.91, 1272.19 424.15, 1271.66 424.92 C 1271.12 425.69, 1270.90 426.40, 1270.89 428.09 C 1270.89 429.78, 1271.09 430.93, 1271.63 433.36 C 1272.17 435.79, 1272.82 437.28, 1273.60 440.25 C 1274.38 443.22, 1274.70 444.85, 1275.53 448.21 C 1276.36 451.57, 1276.83 453.45, 1277.76 457.04 C 1278.68 460.63, 1279.15 462.52, 1280.15 466.16 C 1281.14 469.80, 1281.63 471.74, 1282.72 475.24 C 1283.81 478.74, 1284.31 480.49, 1285.61 483.67 C 1286.91 486.85, 1287.68 488.40, 1289.21 491.14 C 1290.75 493.87, 1291.62 495.20, 1293.28 497.34 C 1294.95 499.47, 1295.82 500.34, 1297.54 501.81 C 1299.25 503.28, 1300.44 503.91, 1301.85 504.69 C 1303.27 505.46, 1303.69 505.48, 1304.61 505.71 C 1305.52 505.94, 1305.97 505.99, 1306.42 505.83 C 1306.86 505.66, 1306.97 505.32, 1306.82 504.90 C 1306.68 504.48, 1306.30 504.33, 1305.69 503.73 C 1305.07 503.12, 1304.88 502.80, 1303.73 501.87 C 1302.58 500.94, 1301.46 500.42, 1299.95 499.06 C 1298.43 497.71, 1297.70 497.01, 1296.15 495.08 C 1294.61 493.14, 1293.76 491.91, 1292.24 489.38 C 1290.72 486.85, 1289.88 485.44, 1288.57 482.42 C 1287.25 479.41, 1286.74 477.73, 1285.65 474.31 C 1284.56 470.90, 1284.07 468.97, 1283.11 465.36 C 1282.15 461.76, 1281.68 459.86, 1280.85 456.28 C 1280.02 452.70, 1279.59 450.85, 1278.96 447.47 C 1278.34 444.09, 1278.20 442.44, 1277.73 439.40 C 1277.27 436.36, 1277.16 434.69, 1276.64 432.26 C 1276.12 429.84, 1275.74 428.77, 1275.13 427.28 C 1274.52 425.79, 1274.17 425.26, 1273.56 424.81 C 1272.96 424.36, 1272.39 424.42, 1272.11 425.04 C 1271.84 425.65, 1271.90 426.47, 1272.20 427.87 C 1272.50 429.27, 1272.99 430.14, 1273.61 432.03 C 1274.23 433.92, 1274.64 435.07, 1275.31 437.32 C 1275.98 439.57, 1276.39 440.76, 1276.97 443.29 C 1277.55 445.83, 1277.84 447.24, 1278.20 450.01 C 1278.57 452.78, 1278.69 454.27, 1278.80 457.16 C 1278.92 460.05, 1279.02 461.60, 1278.78 464.48 C 1278.54 467.35, 1278.38 468.81, 1277.58 471.53 C 1276.79 474.26, 1276.04 475.65, 1274.80 478.09 C 1273.56 480.52, 1272.94 481.71, 1271.39 483.72 C 1269.84 485.74, 1268.92 486.66, 1267.05 488.16 C 1265.18 489.66, 1264.17 490.29, 1262.02 491.22 C 1259.88 492.16, 1258.66 492.42, 1256.32 492.83 C 1253.99 493.24, 1252.72 493.40, 1250.36 493.27 C 1248.00 493.15, 1246.71 492.82, 1244.51 492.21 C 1242.31 491.59, 1241.21 491.31, 1239.36 490.19 C 1237.52 489.06, 1236.69 488.19, 1235.28 486.60 C 1233.88 485.01, 1233.20 483.95, 1232.34 482.22 C 1231.49 480.48, 1231.19 479.71, 1230.99 477.94 C 1230.79 476.18, 1230.94 475.10, 1231.34 473.38 C 1231.75 471.67, 1232.10 470.82, 1233.00 469.37 C 1233.90 467.93, 1234.58 467.34, 1235.85 466.16 C 1237.12 464.98, 1237.90 464.36, 1239.36 463.48 C 1240.81 462.61, 1241.53 462.29, 1243.13 461.79 C 1244.73 461.30, 1245.66 461.17, 1247.35 461.01 C 1249.04 460.85, 1249.90 460.78, 1251.59 461.00 C 1253.29 461.21, 1254.25 461.52, 1255.83 462.07 C 1257.40 462.62, 1258.13 462.96, 1259.46 463.76 C 1260.79 464.55, 1261.39 465.23, 1262.46 466.03 C 1263.54 466.83, 1264.00 467.21, 1264.85 467.76 C 1265.69 468.32, 1266.06 468.79, 1266.71 468.80 C 1267.36 468.82, 1267.92 468.53, 1268.09 467.86" style="stroke: black; fill: black;"/><path d="M 1309.31,488.93 C 1310.01 489.21, 1310.78 489.07, 1312.17 488.81 C 1313.57 488.54, 1314.51 488.28, 1316.30 487.60 C 1318.09 486.92, 1319.27 486.37, 1321.14 485.41 C 1323.01 484.44, 1323.95 483.88, 1325.65 482.77 C 1327.35 481.66, 1328.21 481.02, 1329.63 479.85 C 1331.05 478.68, 1331.65 478.13, 1332.74 476.92 C 1333.83 475.72, 1334.38 475.17, 1335.07 473.83 C 1335.75 472.50, 1336.10 471.66, 1336.15 470.25 C 1336.20 468.83, 1335.95 467.97, 1335.31 466.76 C 1334.67 465.54, 1334.14 465.05, 1332.95 464.17 C 1331.75 463.29, 1330.99 462.85, 1329.33 462.36 C 1327.67 461.86, 1326.58 461.68, 1324.65 461.69 C 1322.71 461.70, 1321.67 461.92, 1319.68 462.40 C 1317.68 462.88, 1316.65 463.21, 1314.67 464.08 C 1312.69 464.94, 1311.60 465.47, 1309.77 466.73 C 1307.93 467.98, 1306.98 468.68, 1305.50 470.37 C 1304.02 472.07, 1303.28 473.10, 1302.37 475.19 C 1301.47 477.28, 1301.14 478.50, 1300.96 480.84 C 1300.79 483.17, 1300.91 484.45, 1301.50 486.85 C 1302.09 489.25, 1302.52 490.53, 1303.91 492.82 C 1305.30 495.11, 1306.20 496.32, 1308.45 498.28 C 1310.71 500.24, 1312.13 501.15, 1315.20 502.63 C 1318.26 504.10, 1320.21 504.70, 1323.78 505.65 C 1327.36 506.60, 1329.28 506.95, 1333.07 507.37 C 1336.87 507.80, 1338.97 507.88, 1342.75 507.79 C 1346.52 507.70, 1348.48 507.50, 1351.95 506.93 C 1355.42 506.36, 1357.07 506.00, 1360.11 504.96 C 1363.15 503.92, 1364.70 503.33, 1367.15 501.74 C 1369.59 500.15, 1370.69 499.05, 1372.33 497.00 C 1373.96 494.96, 1374.48 493.81, 1375.32 491.52 C 1376.16 489.22, 1376.35 487.89, 1376.53 485.54 C 1376.72 483.20, 1376.61 481.91, 1376.25 479.79 C 1375.90 477.67, 1375.54 476.64, 1374.77 474.95 C 1373.99 473.26, 1373.48 472.36, 1372.38 471.34 C 1371.29 470.31, 1370.51 469.93, 1369.30 469.83 C 1368.10 469.73, 1367.34 470.05, 1366.36 470.82 C 1365.37 471.59, 1364.89 472.25, 1364.38 473.68 C 1363.87 475.10, 1363.82 476.16, 1363.79 477.96 C 1363.76 479.76, 1364.04 480.86, 1364.22 482.67 C 1364.39 484.49, 1364.46 485.35, 1364.67 487.03 C 1364.89 488.70, 1364.97 489.72, 1365.28 491.05 C 1365.59 492.38, 1365.78 493.07, 1366.23 493.67 C 1366.68 494.26, 1367.18 494.37, 1367.54 494.02 C 1367.90 493.68, 1368.18 493.04, 1368.02 491.94 C 1367.86 490.85, 1367.40 490.05, 1366.73 488.56 C 1366.07 487.06, 1365.50 486.16, 1364.71 484.47 C 1363.93 482.78, 1363.51 481.88, 1362.82 480.10 C 1362.13 478.33, 1361.73 477.40, 1361.26 475.60 C 1360.78 473.79, 1360.58 472.83, 1360.44 471.08 C 1360.29 469.33, 1360.19 468.43, 1360.52 466.87 C 1360.85 465.31, 1361.08 464.63, 1362.08 463.27 C 1363.08 461.92, 1363.85 461.26, 1365.53 460.09 C 1367.21 458.91, 1368.27 458.32, 1370.48 457.40 C 1372.70 456.49, 1373.99 456.11, 1376.62 455.50 C 1379.24 454.89, 1380.64 454.55, 1383.61 454.37 C 1386.58 454.20, 1388.14 454.26, 1391.47 454.62 C 1394.81 454.99, 1397.06 455.55, 1400.29 456.21 C 1403.51 456.87, 1405.04 457.49, 1407.60 457.92 C 1410.17 458.35, 1411.94 458.55, 1413.11 458.36 C 1414.29 458.16, 1414.41 457.70, 1413.47 456.96 C 1412.54 456.21, 1410.93 455.51, 1408.44 454.65 C 1405.95 453.79, 1404.35 453.35, 1401.03 452.64 C 1397.71 451.94, 1395.37 451.51, 1391.85 451.13 C 1388.34 450.75, 1386.68 450.65, 1383.46 450.73 C 1380.25 450.80, 1378.69 450.96, 1375.78 451.52 C 1372.86 452.09, 1371.41 452.50, 1368.88 453.56 C 1366.35 454.63, 1365.11 455.33, 1363.14 456.85 C 1361.17 458.37, 1360.28 459.30, 1359.04 461.14 C 1357.80 462.98, 1357.43 464.01, 1356.93 466.04 C 1356.43 468.08, 1356.43 469.22, 1356.52 471.32 C 1356.61 473.43, 1356.91 474.54, 1357.39 476.57 C 1357.87 478.59, 1358.34 479.53, 1358.93 481.45 C 1359.52 483.38, 1359.72 484.29, 1360.34 486.19 C 1360.97 488.08, 1361.18 489.36, 1362.05 490.92 C 1362.93 492.47, 1363.73 493.16, 1364.72 493.96 C 1365.71 494.75, 1366.18 494.93, 1367.00 494.88 C 1367.82 494.83, 1368.36 494.55, 1368.82 493.69 C 1369.29 492.83, 1369.32 492.00, 1369.32 490.58 C 1369.31 489.17, 1368.91 488.25, 1368.79 486.62 C 1368.67 484.98, 1368.76 484.16, 1368.73 482.41 C 1368.70 480.67, 1368.72 479.49, 1368.65 477.89 C 1368.57 476.29, 1368.38 475.46, 1368.33 474.42 C 1368.28 473.37, 1368.29 473.10, 1368.39 472.67 C 1368.50 472.23, 1368.58 472.08, 1368.87 472.24 C 1369.16 472.41, 1369.37 472.65, 1369.86 473.49 C 1370.35 474.32, 1370.79 475.02, 1371.31 476.40 C 1371.82 477.79, 1372.15 478.63, 1372.43 480.41 C 1372.70 482.18, 1372.79 483.30, 1372.69 485.29 C 1372.59 487.27, 1372.56 488.44, 1371.94 490.34 C 1371.32 492.24, 1370.94 493.12, 1369.58 494.79 C 1368.22 496.46, 1367.27 497.28, 1365.14 498.68 C 1363.02 500.07, 1361.72 500.74, 1358.97 501.76 C 1356.22 502.78, 1354.67 503.20, 1351.41 503.79 C 1348.15 504.38, 1346.26 504.62, 1342.67 504.71 C 1339.07 504.81, 1337.04 504.72, 1333.44 504.27 C 1329.84 503.82, 1328.00 503.44, 1324.67 502.46 C 1321.35 501.48, 1319.54 500.82, 1316.83 499.39 C 1314.11 497.95, 1313.02 497.01, 1311.11 495.28 C 1309.19 493.56, 1308.42 492.64, 1307.25 490.76 C 1306.09 488.89, 1305.77 487.84, 1305.27 485.91 C 1304.78 483.98, 1304.67 482.94, 1304.79 481.11 C 1304.91 479.27, 1305.15 478.35, 1305.87 476.72 C 1306.59 475.10, 1307.17 474.30, 1308.40 472.97 C 1309.62 471.64, 1310.43 471.11, 1312.01 470.09 C 1313.59 469.07, 1314.58 468.60, 1316.30 467.86 C 1318.02 467.13, 1318.94 466.80, 1320.61 466.43 C 1322.28 466.06, 1323.11 465.99, 1324.64 466.00 C 1326.18 466.01, 1327.00 466.22, 1328.28 466.48 C 1329.55 466.74, 1330.18 466.92, 1331.01 467.29 C 1331.85 467.67, 1332.10 467.81, 1332.45 468.35 C 1332.80 468.90, 1332.84 469.27, 1332.75 470.03 C 1332.66 470.79, 1332.52 471.28, 1332.00 472.17 C 1331.48 473.05, 1331.08 473.52, 1330.13 474.45 C 1329.19 475.39, 1328.61 475.88, 1327.29 476.84 C 1325.97 477.80, 1325.17 478.36, 1323.54 479.25 C 1321.91 480.14, 1320.96 480.46, 1319.14 481.27 C 1317.32 482.09, 1316.11 482.49, 1314.43 483.32 C 1312.75 484.15, 1311.90 484.61, 1310.74 485.43 C 1309.59 486.25, 1308.95 486.72, 1308.66 487.42 C 1308.37 488.12, 1308.60 488.66, 1309.31 488.93" style="stroke: black; fill: black;"/></svg>