<svg xmlns="http://www.w3.org/2000/svg" id="canvas" viewBox="280.281 402.130 1155.966 124.281">
  <style>
    path {
      stroke-dasharray: 2000;
      stroke-dashoffset: 2000;
      -webkit-animation: dash 5s ease infinite;
      animation: dash 5s ease infinite;
    }
    
    @-webkit-keyframes dash {
      to {
        stroke-dashoffset: 0;
      }
    }
    @keyframes dash {
      to {
        stroke-dashoffset: 0;
      }
    }
  </style>
    <path
        d="M 315.45,405.35 C 314.51 405.79, 313.98 406.44, 313.10 408.22 C 312.21 410.01, 311.86 411.16, 311.03 414.26 C 310.21 417.37, 310.01 419.54, 308.96 423.73 C 307.92 427.92, 307.31 430.40, 305.82 435.21 C 304.32 440.03, 303.27 442.69, 301.48 447.81 C 299.69 452.94, 298.67 455.76, 296.87 460.86 C 295.07 465.95, 294.14 468.57, 292.48 473.30 C 290.81 478.03, 289.93 480.37, 288.54 484.51 C 287.15 488.64, 286.50 490.62, 285.51 493.98 C 284.51 497.35, 283.98 498.81, 283.57 501.35 C 283.16 503.89, 283.24 505.02, 283.48 506.68 C 283.72 508.34, 284.13 508.82, 284.75 509.66 C 285.37 510.49, 285.92 510.68, 286.57 510.84 C 287.21 511.00, 287.81 510.87, 287.98 510.46 C 288.15 510.04, 287.57 509.08, 287.43 508.77 C 287.29 508.45, 287.21 508.94, 287.29 508.89 C 287.36 508.84, 287.66 508.97, 287.79 508.51 C 287.93 508.06, 287.76 507.88, 287.96 506.62 C 288.16 505.37, 288.38 504.53, 288.79 502.24 C 289.21 499.94, 289.34 498.45, 290.04 495.13 C 290.74 491.82, 291.14 489.80, 292.30 485.66 C 293.46 481.53, 294.28 479.18, 295.84 474.44 C 297.40 469.71, 298.31 467.09, 300.11 462.00 C 301.91 456.92, 302.93 454.12, 304.82 449.02 C 306.72 443.92, 307.82 441.27, 309.59 436.50 C 311.36 431.73, 312.16 429.28, 313.66 425.17 C 315.17 421.07, 316.19 419.09, 317.12 415.98 C 318.05 412.87, 318.16 411.61, 318.29 409.62 C 318.43 407.62, 318.35 406.86, 317.78 406.00 C 317.21 405.15, 316.38 404.90, 315.45 405.35"
        stroke="#000000"
        fill="none"
        stroke-width="3"
    />
    <path
        d="M 342.07,416.99 C 341.27 417.37, 341.07 417.85, 340.42 419.13 C 339.76 420.41, 339.34 421.11, 338.80 423.39 C 338.26 425.68, 338.27 427.31, 337.73 430.56 C 337.18 433.80, 336.97 435.79, 336.06 439.62 C 335.15 443.45, 334.49 445.57, 333.17 449.71 C 331.85 453.85, 331.01 456.15, 329.44 460.32 C 327.87 464.49, 326.91 466.67, 325.33 470.56 C 323.74 474.46, 323.00 476.43, 321.53 479.79 C 320.05 483.14, 319.15 484.61, 317.96 487.36 C 316.77 490.10, 316.22 491.46, 315.57 493.51 C 314.92 495.56, 314.85 496.34, 314.71 497.60 C 314.56 498.87, 314.72 499.20, 314.87 499.84 C 315.02 500.48, 315.15 500.55, 315.45 500.79 C 315.74 501.03, 315.97 501.08, 316.35 501.06 C 316.72 501.05, 316.80 501.11, 317.32 500.71 C 317.84 500.30, 318.27 500.11, 318.92 499.05 C 319.58 497.99, 319.78 497.31, 320.61 495.39 C 321.44 493.46, 322.01 492.20, 323.06 489.43 C 324.11 486.65, 324.60 484.97, 325.86 481.52 C 327.11 478.06, 327.81 476.08, 329.32 472.14 C 330.82 468.20, 331.77 466.02, 333.38 461.82 C 334.99 457.62, 335.85 455.30, 337.36 451.14 C 338.88 446.99, 339.62 444.87, 340.95 441.05 C 342.27 437.23, 342.97 435.31, 343.97 432.04 C 344.97 428.77, 345.60 427.15, 345.93 424.70 C 346.26 422.26, 345.92 421.30, 345.63 419.81 C 345.33 418.31, 345.16 417.80, 344.45 417.24 C 343.74 416.67, 342.88 416.61, 342.07 416.99"
        stroke="#000000"
        fill="none"
        stroke-width="3"
    />
    <path
        d="M 293.14,469.77 C 293.60 470.29, 293.56 470.50, 294.60 470.73 C 295.63 470.97, 296.39 471.17, 298.32 470.95 C 300.24 470.74, 301.40 470.35, 304.22 469.67 C 307.05 469.00, 309.12 468.29, 312.43 467.59 C 315.74 466.89, 317.47 466.64, 320.77 466.17 C 324.07 465.71, 326.05 465.67, 328.93 465.28 C 331.82 464.88, 333.16 464.70, 335.20 464.19 C 337.25 463.69, 338.37 463.45, 339.15 462.75 C 339.94 462.06, 339.97 461.40, 339.14 460.72 C 338.30 460.04, 337.14 459.65, 334.97 459.34 C 332.80 459.03, 331.29 458.96, 328.29 459.18 C 325.29 459.40, 323.34 460.00, 319.98 460.45 C 316.63 460.90, 314.95 461.12, 311.50 461.44 C 308.06 461.75, 305.77 461.58, 302.75 462.04 C 299.74 462.49, 298.39 462.90, 296.43 463.70 C 294.47 464.49, 293.79 465.13, 292.96 466.01 C 292.12 466.90, 292.23 467.38, 292.26 468.13 C 292.30 468.88, 292.67 469.25, 293.14 469.77"
        stroke="#000000"
        fill="none"
        stroke-width="3"
    />
    <path
        d="M 371.29,476.75 C 371.86 477.48, 372.41 477.73, 373.92 478.00 C 375.43 478.27, 376.49 478.47, 378.83 478.09 C 381.17 477.72, 382.89 477.24, 385.64 476.12 C 388.39 475.00, 389.84 473.93, 392.58 472.50 C 395.31 471.07, 396.85 470.48, 399.31 468.97 C 401.78 467.46, 403.06 466.65, 404.91 464.96 C 406.76 463.27, 407.69 462.41, 408.57 460.54 C 409.44 458.66, 409.68 457.46, 409.28 455.60 C 408.87 453.74, 408.32 452.58, 406.54 451.25 C 404.77 449.92, 403.30 449.12, 400.39 448.95 C 397.48 448.78, 395.56 449.33, 391.98 450.40 C 388.39 451.47, 386.32 452.41, 382.46 454.29 C 378.59 456.18, 376.40 457.36, 372.64 459.80 C 368.89 462.25, 366.90 463.73, 363.67 466.53 C 360.44 469.33, 358.76 470.89, 356.49 473.80 C 354.22 476.70, 353.16 478.18, 352.31 481.06 C 351.45 483.94, 351.50 485.62, 352.21 488.18 C 352.93 490.75, 353.75 492.11, 355.88 493.89 C 358.01 495.67, 359.63 496.25, 362.86 497.08 C 366.09 497.91, 368.10 497.97, 372.02 498.02 C 375.94 498.06, 378.48 497.69, 382.48 497.31 C 386.48 496.92, 388.80 496.80, 392.00 496.11 C 395.21 495.42, 396.54 494.81, 398.50 493.85 C 400.46 492.88, 401.28 492.15, 401.82 491.29 C 402.36 490.44, 402.10 489.90, 401.19 489.57 C 400.29 489.24, 399.34 489.45, 397.29 489.63 C 395.25 489.81, 394.03 490.02, 390.96 490.49 C 387.89 490.96, 385.70 491.60, 381.95 492.00 C 378.19 492.40, 375.71 492.65, 372.18 492.48 C 368.64 492.31, 366.92 491.73, 364.27 491.15 C 361.63 490.58, 360.46 490.44, 358.94 489.61 C 357.42 488.78, 357.03 488.38, 356.70 487.00 C 356.36 485.61, 356.53 484.72, 357.28 482.67 C 358.02 480.63, 358.53 479.33, 360.41 476.77 C 362.28 474.22, 363.72 472.55, 366.65 469.91 C 369.58 467.28, 371.50 465.81, 375.06 463.60 C 378.62 461.38, 380.80 460.30, 384.47 458.83 C 388.15 457.35, 390.26 456.84, 393.42 456.23 C 396.58 455.62, 398.12 455.88, 400.27 455.80 C 402.43 455.72, 403.17 455.70, 404.19 455.82 C 405.21 455.93, 405.34 455.96, 405.38 456.37 C 405.43 456.78, 405.25 457.08, 404.41 457.85 C 403.58 458.63, 402.89 459.17, 401.21 460.24 C 399.54 461.32, 398.34 462.02, 396.03 463.24 C 393.72 464.47, 392.29 465.24, 389.66 466.37 C 387.03 467.49, 385.44 467.96, 382.89 468.85 C 380.34 469.74, 378.87 470.05, 376.90 470.81 C 374.94 471.58, 374.21 471.96, 373.05 472.67 C 371.88 473.38, 371.41 473.54, 371.06 474.36 C 370.71 475.17, 370.72 476.02, 371.29 476.75"
        stroke="#000000"
        fill="none"
        stroke-width="3"
    />
    <path
        d="M 458.21,415.79 C 457.28 416.10, 456.83 416.49, 455.74 418.11 C 454.65 419.73, 454.02 420.90, 452.77 423.89 C 451.52 426.89, 451.12 429.08, 449.49 433.10 C 447.86 437.12, 446.78 439.56, 444.61 444.01 C 442.45 448.45, 440.99 450.90, 438.68 455.32 C 436.38 459.73, 435.15 462.07, 433.09 466.09 C 431.04 470.11, 430.00 472.02, 428.40 475.42 C 426.79 478.81, 425.87 480.38, 425.07 483.07 C 424.28 485.75, 424.38 486.99, 424.42 488.83 C 424.46 490.67, 424.75 491.27, 425.25 492.26 C 425.76 493.26, 426.32 493.52, 426.96 493.81 C 427.59 494.09, 428.16 494.03, 428.44 493.68 C 428.72 493.32, 428.42 492.35, 428.35 492.01 C 428.29 491.67, 428.07 492.06, 428.11 491.97 C 428.16 491.88, 428.39 492.10, 428.57 491.55 C 428.75 491.01, 428.67 490.65, 429.01 489.26 C 429.35 487.87, 429.56 487.01, 430.27 484.60 C 430.98 482.19, 431.29 480.55, 432.57 477.20 C 433.85 473.85, 434.76 471.87, 436.67 467.86 C 438.58 463.84, 439.78 461.51, 442.10 457.11 C 444.43 452.72, 445.91 450.28, 448.29 445.90 C 450.67 441.52, 451.93 439.10, 454.00 435.20 C 456.06 431.30, 457.26 429.43, 458.60 426.42 C 459.95 423.40, 460.38 422.09, 460.74 420.12 C 461.09 418.15, 460.88 417.43, 460.38 416.56 C 459.87 415.70, 459.13 415.47, 458.21 415.79"
        stroke="#000000"
        fill="none"
        stroke-width="3"
    />
    <path
        d="M 488.72,413.50 C 487.88 413.69, 487.73 413.95, 486.67 415.11 C 485.61 416.27, 484.70 416.87, 483.42 419.30 C 482.13 421.72, 481.87 423.74, 480.26 427.24 C 478.65 430.73, 477.52 432.82, 475.35 436.79 C 473.18 440.76, 471.73 443.01, 469.40 447.09 C 467.07 451.17, 465.82 453.30, 463.68 457.20 C 461.54 461.10, 460.43 463.11, 458.69 466.59 C 456.95 470.07, 456.04 471.65, 454.98 474.60 C 453.91 477.56, 453.56 478.94, 453.36 481.38 C 453.15 483.82, 453.34 485.06, 453.96 486.82 C 454.57 488.58, 455.43 489.27, 456.43 490.16 C 457.44 491.06, 458.10 491.19, 458.98 491.29 C 459.87 491.38, 460.47 491.17, 460.86 490.65 C 461.26 490.12, 461.11 489.21, 460.98 488.66 C 460.85 488.10, 460.51 488.19, 460.23 487.87 C 459.95 487.54, 459.95 487.50, 459.59 487.02 C 459.23 486.54, 458.64 486.46, 458.42 485.46 C 458.19 484.45, 458.13 483.83, 458.45 482.00 C 458.76 480.17, 459.14 479.02, 460.00 476.32 C 460.87 473.62, 461.32 471.92, 462.78 468.48 C 464.24 465.05, 465.28 463.02, 467.32 459.16 C 469.36 455.30, 470.57 453.18, 472.97 449.17 C 475.36 445.16, 476.84 442.96, 479.28 439.12 C 481.73 435.28, 483.04 433.26, 485.19 429.97 C 487.35 426.68, 488.80 425.23, 490.05 422.67 C 491.31 420.10, 491.30 418.85, 491.46 417.15 C 491.62 415.45, 491.39 414.89, 490.84 414.17 C 490.30 413.44, 489.55 413.32, 488.72 413.50"
        stroke="#000000"
        fill="none"
        stroke-width="3"
    />
    <path
        d="M 525.51,455.05 C 525.36 454.08, 524.75 453.42, 523.55 452.64 C 522.35 451.87, 521.57 451.45, 519.52 451.17 C 517.47 450.89, 515.95 450.69, 513.31 451.24 C 510.66 451.79, 509.23 452.50, 506.30 453.93 C 503.36 455.35, 501.65 456.33, 498.65 458.35 C 495.64 460.37, 493.98 461.66, 491.27 464.01 C 488.56 466.35, 486.97 467.57, 485.10 470.10 C 483.24 472.62, 482.54 474.14, 481.94 476.64 C 481.33 479.13, 481.39 480.44, 482.08 482.57 C 482.78 484.71, 483.51 485.81, 485.42 487.30 C 487.33 488.80, 488.79 489.56, 491.65 490.05 C 494.50 490.55, 496.29 490.30, 499.69 489.78 C 503.08 489.26, 505.06 488.64, 508.63 487.45 C 512.21 486.26, 514.20 485.45, 517.57 483.83 C 520.94 482.21, 522.62 481.25, 525.48 479.34 C 528.34 477.42, 529.84 476.43, 531.87 474.26 C 533.89 472.08, 534.64 470.75, 535.62 468.45 C 536.60 466.15, 536.79 464.91, 536.76 462.76 C 536.72 460.61, 536.35 459.47, 535.46 457.70 C 534.56 455.94, 533.73 455.03, 532.27 453.91 C 530.82 452.79, 529.64 452.40, 528.17 452.10 C 526.71 451.81, 525.93 452.09, 524.93 452.44 C 523.93 452.78, 523.51 453.19, 523.17 453.84 C 522.84 454.49, 522.98 455.05, 523.24 455.68 C 523.50 456.31, 523.85 456.46, 524.48 456.97 C 525.11 457.48, 525.48 457.83, 526.38 458.23 C 527.28 458.62, 528.08 458.55, 528.98 458.96 C 529.88 459.37, 530.34 459.54, 530.88 460.30 C 531.42 461.07, 531.70 461.61, 531.69 462.78 C 531.67 463.95, 531.60 464.67, 530.79 466.16 C 529.97 467.64, 529.29 468.48, 527.61 470.21 C 525.92 471.95, 524.83 473.07, 522.37 474.83 C 519.90 476.59, 518.35 477.58, 515.28 479.03 C 512.21 480.48, 510.29 481.20, 507.01 482.09 C 503.73 482.99, 501.79 483.22, 498.88 483.50 C 495.98 483.79, 494.61 483.66, 492.47 483.52 C 490.34 483.38, 489.44 483.27, 488.20 482.82 C 486.97 482.36, 486.55 482.14, 486.28 481.24 C 486.01 480.33, 486.12 479.76, 486.85 478.29 C 487.58 476.81, 488.29 475.83, 489.93 473.84 C 491.57 471.85, 492.68 470.42, 495.05 468.32 C 497.42 466.22, 499.00 464.98, 501.80 463.33 C 504.59 461.69, 506.42 461.10, 509.02 460.08 C 511.62 459.05, 512.76 458.65, 514.79 458.21 C 516.81 457.77, 517.70 457.96, 519.13 457.88 C 520.56 457.81, 520.89 457.89, 521.92 457.82 C 522.96 457.75, 523.60 458.08, 524.32 457.52 C 525.03 456.97, 525.67 456.03, 525.51 455.05"
        stroke="#000000"
        fill="none"
        stroke-width="3"
    />
    <path
        d="M 581.26,487.11 C 580.39 487.13, 580.04 487.38, 578.96 488.27 C 577.88 489.16, 577.20 489.74, 575.87 491.56 C 574.53 493.39, 573.88 494.76, 572.31 497.41 C 570.73 500.05, 569.81 501.92, 568.01 504.80 C 566.20 507.67, 564.90 509.15, 563.27 511.77 C 561.65 514.38, 560.74 515.77, 559.88 517.87 C 559.01 519.96, 558.78 521.16, 558.94 522.24 C 559.09 523.33, 559.63 523.61, 560.65 523.28 C 561.66 522.95, 562.45 522.19, 564.01 520.59 C 565.58 519.00, 566.64 517.78, 568.47 515.31 C 570.31 512.84, 571.21 511.04, 573.18 508.25 C 575.16 505.45, 576.53 503.88, 578.34 501.31 C 580.14 498.75, 581.13 497.51, 582.19 495.42 C 583.25 493.33, 583.40 492.31, 583.63 490.86 C 583.85 489.41, 583.78 488.92, 583.31 488.17 C 582.84 487.42, 582.13 487.09, 581.26 487.11"
        stroke="#000000"
        fill="none"
        stroke-width="3"
    />
    <path
        d="M 712.34,415.06 C 711.49 415.28, 711.19 415.63, 710.32 416.79 C 709.44 417.96, 708.84 418.67, 707.95 420.89 C 707.07 423.11, 706.89 424.74, 705.89 427.91 C 704.89 431.09, 704.39 433.06, 702.94 436.77 C 701.50 440.49, 700.51 442.52, 698.66 446.48 C 696.81 450.44, 695.71 452.64, 693.68 456.58 C 691.66 460.53, 690.48 462.51, 688.54 466.20 C 686.60 469.89, 685.62 471.82, 683.99 475.05 C 682.37 478.27, 681.47 479.72, 680.43 482.33 C 679.39 484.94, 679.14 486.15, 678.78 488.09 C 678.42 490.02, 678.51 490.80, 678.63 491.99 C 678.75 493.19, 678.93 493.60, 679.39 494.06 C 679.84 494.51, 680.36 494.53, 680.91 494.26 C 681.46 493.99, 681.59 493.65, 682.14 492.70 C 682.69 491.76, 682.95 491.21, 683.67 489.54 C 684.38 487.88, 684.76 486.87, 685.70 484.38 C 686.65 481.88, 687.03 480.30, 688.37 477.06 C 689.72 473.81, 690.61 471.87, 692.42 468.17 C 694.23 464.46, 695.39 462.47, 697.44 458.52 C 699.48 454.57, 700.61 452.37, 702.64 448.43 C 704.66 444.49, 705.72 442.47, 707.56 438.83 C 709.39 435.19, 710.35 433.35, 711.82 430.24 C 713.28 427.13, 714.16 425.67, 714.87 423.29 C 715.59 420.91, 715.43 419.85, 715.37 418.33 C 715.31 416.81, 715.17 416.33, 714.57 415.68 C 713.96 415.02, 713.19 414.83, 712.34 415.06"
        stroke="#000000"
        fill="none"
        stroke-width="3"
    />
    <path
        d="M 751.01,415.96 C 750.21 415.77, 749.75 415.71, 748.70 416.29 C 747.65 416.87, 746.91 417.45, 745.78 418.86 C 744.64 420.27, 744.13 421.35, 743.03 423.35 C 741.93 425.35, 741.32 426.71, 740.28 428.86 C 739.23 431.01, 738.62 432.23, 737.81 434.10 C 737.00 435.96, 736.62 436.80, 736.23 438.19 C 735.84 439.58, 735.84 440.15, 735.86 441.03 C 735.88 441.91, 735.97 442.18, 736.31 442.60 C 736.65 443.02, 737.04 443.15, 737.57 443.14 C 738.09 443.13, 738.25 443.04, 738.94 442.56 C 739.63 442.09, 740.09 441.82, 741.02 440.77 C 741.94 439.72, 742.39 438.97, 743.55 437.33 C 744.72 435.69, 745.53 434.57, 746.83 432.56 C 748.14 430.55, 748.95 429.25, 750.07 427.29 C 751.18 425.32, 751.79 424.36, 752.42 422.76 C 753.05 421.15, 753.17 420.37, 753.23 419.27 C 753.29 418.17, 753.15 417.92, 752.71 417.26 C 752.27 416.59, 751.81 416.15, 751.01 415.96"
        stroke="#000000"
        fill="none"
        stroke-width="3"
    />
    <path
        d="M 786.57,447.88 C 785.71 448.05, 785.48 448.38, 784.52 449.42 C 783.56 450.45, 782.87 451.12, 781.77 453.06 C 780.67 455.01, 780.20 456.48, 779.02 459.13 C 777.85 461.79, 777.26 463.54, 775.89 466.33 C 774.52 469.12, 773.42 470.54, 772.17 473.07 C 770.92 475.60, 770.34 476.92, 769.65 478.98 C 768.95 481.03, 768.58 481.96, 768.71 483.35 C 768.84 484.75, 769.27 485.48, 770.30 485.96 C 771.34 486.44, 772.31 486.49, 773.87 485.75 C 775.43 485.01, 776.38 484.27, 778.11 482.25 C 779.84 480.23, 780.39 478.43, 782.53 475.63 C 784.67 472.84, 786.13 471.09, 788.81 468.25 C 791.50 465.42, 793.15 463.84, 795.96 461.47 C 798.76 459.11, 800.37 458.10, 802.83 456.45 C 805.29 454.80, 806.59 454.21, 808.27 453.24 C 809.94 452.26, 810.53 451.81, 811.22 451.57 C 811.91 451.34, 811.81 451.41, 811.72 452.05 C 811.63 452.70, 811.29 453.27, 810.77 454.79 C 810.25 456.31, 809.85 457.43, 809.12 459.67 C 808.39 461.90, 807.95 463.49, 807.12 465.98 C 806.28 468.47, 805.70 469.86, 804.96 472.11 C 804.22 474.37, 803.65 475.49, 803.42 477.26 C 803.19 479.03, 803.12 479.87, 803.79 480.95 C 804.46 482.03, 805.27 482.63, 806.77 482.66 C 808.27 482.69, 809.39 482.45, 811.28 481.11 C 813.17 479.76, 814.01 478.29, 816.24 475.92 C 818.47 473.54, 819.67 471.83, 822.43 469.24 C 825.19 466.65, 826.96 465.19, 830.03 462.97 C 833.10 460.76, 834.86 459.65, 837.78 458.15 C 840.71 456.64, 842.34 456.24, 844.65 455.43 C 846.95 454.63, 847.93 454.28, 849.30 454.11 C 850.67 453.94, 851.01 454.04, 851.50 454.59 C 852.00 455.15, 851.92 455.58, 851.76 456.89 C 851.61 458.21, 851.33 459.10, 850.73 461.17 C 850.14 463.25, 849.64 464.64, 848.80 467.27 C 847.96 469.89, 847.41 471.57, 846.55 474.29 C 845.70 477.02, 845.11 478.48, 844.51 480.91 C 843.90 483.34, 843.69 484.54, 843.52 486.44 C 843.36 488.33, 843.41 489.14, 843.69 490.38 C 843.97 491.62, 844.39 492.09, 844.92 492.65 C 845.45 493.21, 845.89 493.25, 846.35 493.19 C 846.82 493.13, 846.99 492.64, 847.24 492.35 C 847.49 492.06, 847.39 492.14, 847.59 491.74 C 847.79 491.34, 848.00 491.21, 848.26 490.35 C 848.53 489.49, 848.45 488.93, 848.91 487.43 C 849.38 485.92, 849.73 484.99, 850.57 482.82 C 851.41 480.65, 852.08 479.27, 853.12 476.60 C 854.15 473.93, 854.85 472.31, 855.75 469.48 C 856.65 466.65, 857.33 465.12, 857.62 462.45 C 857.90 459.77, 857.83 458.29, 857.18 456.12 C 856.52 453.94, 855.87 452.92, 854.33 451.57 C 852.80 450.23, 851.79 449.73, 849.50 449.40 C 847.21 449.07, 845.73 449.11, 842.90 449.94 C 840.06 450.78, 838.46 451.79, 835.30 453.57 C 832.15 455.36, 830.41 456.59, 827.12 458.88 C 823.83 461.17, 822.02 462.63, 818.87 465.02 C 815.73 467.42, 813.92 468.67, 811.39 470.84 C 808.86 473.01, 807.55 474.12, 806.23 475.89 C 804.90 477.66, 804.83 478.63, 804.79 479.69 C 804.75 480.75, 805.24 481.22, 806.02 481.18 C 806.81 481.14, 807.67 480.77, 808.72 479.47 C 809.76 478.18, 810.18 476.88, 811.27 474.70 C 812.35 472.53, 813.06 471.19, 814.13 468.59 C 815.19 465.99, 815.98 464.36, 816.58 461.69 C 817.18 459.02, 817.38 457.51, 817.12 455.23 C 816.87 452.95, 816.45 451.78, 815.31 450.29 C 814.17 448.80, 813.28 448.18, 811.44 447.80 C 809.59 447.42, 808.45 447.57, 806.10 448.38 C 803.76 449.19, 802.40 450.02, 799.72 451.87 C 797.03 453.72, 795.58 455.09, 792.67 457.63 C 789.75 460.16, 788.08 461.77, 785.12 464.54 C 782.17 467.32, 780.51 468.95, 777.89 471.50 C 775.27 474.05, 773.67 475.15, 772.01 477.28 C 770.36 479.42, 769.98 480.62, 769.62 482.17 C 769.25 483.72, 769.60 484.49, 770.18 485.04 C 770.75 485.58, 771.51 485.57, 772.49 484.88 C 773.46 484.19, 773.94 483.31, 775.06 481.56 C 776.19 479.82, 776.76 478.59, 778.10 476.16 C 779.43 473.73, 780.21 472.17, 781.75 469.41 C 783.30 466.66, 784.44 465.04, 785.81 462.38 C 787.18 459.72, 787.84 458.31, 788.59 456.11 C 789.34 453.92, 789.51 452.92, 789.56 451.41 C 789.61 449.90, 789.44 449.27, 788.84 448.56 C 788.24 447.85, 787.43 447.71, 786.57 447.88"
        stroke="#000000"
        fill="none"
        stroke-width="3"
    />
    <path
        d="M 992.84,410.87 C 991.97 410.77, 991.57 411.02, 990.35 411.82 C 989.12 412.63, 988.24 412.94, 986.72 414.91 C 985.21 416.87, 984.60 418.52, 982.77 421.65 C 980.94 424.78, 979.95 426.77, 977.57 430.56 C 975.20 434.34, 973.73 436.48, 970.89 440.58 C 968.05 444.68, 966.36 447.01, 963.37 451.05 C 960.38 455.08, 958.68 457.08, 955.94 460.74 C 953.19 464.40, 951.87 466.21, 949.64 469.35 C 947.42 472.49, 946.14 473.81, 944.81 476.42 C 943.49 479.04, 943.23 480.23, 943.02 482.42 C 942.81 484.62, 942.97 485.66, 943.76 487.41 C 944.55 489.17, 945.21 490.05, 946.98 491.20 C 948.75 492.36, 949.98 492.82, 952.62 493.18 C 955.26 493.54, 956.82 493.30, 960.18 492.98 C 963.54 492.67, 965.46 492.21, 969.41 491.59 C 973.36 490.97, 975.68 490.57, 979.92 489.90 C 984.15 489.22, 986.40 488.85, 990.59 488.21 C 994.77 487.57, 996.95 487.25, 1000.84 486.69 C 1004.74 486.12, 1006.67 485.90, 1010.07 485.37 C 1013.47 484.84, 1015.09 484.81, 1017.83 484.03 C 1020.57 483.25, 1022.68 482.47, 1023.77 481.45 C 1024.85 480.44, 1024.65 479.47, 1023.26 478.96 C 1021.87 478.45, 1019.63 478.60, 1016.82 478.91 C 1014.01 479.22, 1012.54 479.83, 1009.21 480.49 C 1005.87 481.16, 1003.98 481.55, 1000.13 482.23 C 996.27 482.90, 994.10 483.24, 989.93 483.86 C 985.76 484.49, 983.50 484.83, 979.28 485.35 C 975.06 485.87, 972.71 486.17, 968.82 486.45 C 964.94 486.72, 962.99 486.71, 959.86 486.72 C 956.73 486.74, 955.32 486.54, 953.16 486.51 C 951.00 486.48, 950.20 486.72, 949.06 486.57 C 947.92 486.41, 947.76 486.40, 947.45 485.73 C 947.13 485.06, 947.06 484.60, 947.48 483.22 C 947.91 481.85, 948.42 481.15, 949.60 478.86 C 950.77 476.58, 951.47 474.95, 953.37 471.79 C 955.27 468.63, 956.51 466.75, 959.12 463.05 C 961.72 459.36, 963.41 457.34, 966.41 453.31 C 969.42 449.28, 971.14 446.93, 974.13 442.91 C 977.13 438.89, 978.67 436.77, 981.39 433.20 C 984.10 429.62, 985.49 427.84, 987.71 425.01 C 989.93 422.18, 991.17 421.06, 992.51 419.05 C 993.84 417.03, 993.94 416.28, 994.38 414.94 C 994.82 413.60, 995.00 413.15, 994.70 412.34 C 994.39 411.52, 993.71 410.97, 992.84 410.87"
        stroke="#000000"
        fill="none"
        stroke-width="3"
    />
    <path
        d="M 1057.05,469.23 C 1057.83 469.69, 1058.35 469.63, 1059.70 469.46 C 1061.05 469.29, 1061.90 469.11, 1063.80 468.37 C 1065.69 467.63, 1066.90 466.97, 1069.18 465.74 C 1071.46 464.51, 1072.84 463.67, 1075.17 462.22 C 1077.51 460.77, 1078.76 459.99, 1080.88 458.48 C 1082.99 456.96, 1084.15 456.20, 1085.75 454.65 C 1087.35 453.09, 1088.13 452.38, 1088.87 450.72 C 1089.61 449.05, 1089.86 447.99, 1089.45 446.34 C 1089.04 444.70, 1088.44 443.60, 1086.81 442.49 C 1085.18 441.37, 1083.89 440.85, 1081.29 440.76 C 1078.70 440.66, 1077.08 440.99, 1073.85 442.01 C 1070.61 443.04, 1068.78 444.02, 1065.12 445.87 C 1061.46 447.72, 1059.33 448.90, 1055.54 451.26 C 1051.76 453.61, 1049.65 455.02, 1046.19 457.66 C 1042.72 460.29, 1040.94 461.75, 1038.23 464.42 C 1035.53 467.09, 1034.14 468.37, 1032.67 471.00 C 1031.19 473.63, 1030.89 475.05, 1030.85 477.56 C 1030.82 480.06, 1031.17 481.40, 1032.50 483.53 C 1033.84 485.66, 1034.93 486.84, 1037.53 488.21 C 1040.13 489.58, 1041.89 489.87, 1045.51 490.38 C 1049.13 490.89, 1051.34 490.82, 1055.64 490.74 C 1059.95 490.66, 1062.32 490.47, 1067.03 489.98 C 1071.73 489.49, 1074.72 489.01, 1079.17 488.29 C 1083.62 487.58, 1085.95 487.29, 1089.28 486.43 C 1092.60 485.56, 1094.57 484.90, 1095.79 483.97 C 1097.00 483.05, 1096.80 482.17, 1095.34 481.81 C 1093.87 481.44, 1091.82 481.71, 1088.45 482.13 C 1085.08 482.56, 1082.84 483.24, 1078.47 483.95 C 1074.10 484.65, 1071.16 485.25, 1066.61 485.65 C 1062.06 486.05, 1059.73 486.13, 1055.70 485.95 C 1051.68 485.77, 1049.60 485.39, 1046.48 484.73 C 1043.37 484.08, 1042.16 483.51, 1040.14 482.69 C 1038.13 481.87, 1037.38 481.63, 1036.42 480.65 C 1035.47 479.67, 1035.20 479.18, 1035.37 477.79 C 1035.55 476.41, 1036.02 475.73, 1037.28 473.74 C 1038.55 471.74, 1039.37 470.30, 1041.70 467.80 C 1044.03 465.30, 1045.69 463.75, 1048.93 461.23 C 1052.17 458.71, 1054.26 457.33, 1057.92 455.22 C 1061.59 453.10, 1063.74 452.03, 1067.26 450.65 C 1070.79 449.27, 1072.70 448.95, 1075.55 448.34 C 1078.39 447.73, 1079.63 447.81, 1081.49 447.59 C 1083.35 447.37, 1083.97 447.31, 1084.86 447.23 C 1085.74 447.15, 1085.89 447.03, 1085.90 447.18 C 1085.92 447.33, 1085.71 447.43, 1084.92 447.98 C 1084.13 448.54, 1083.48 448.96, 1081.95 449.95 C 1080.41 450.94, 1079.31 451.71, 1077.26 452.92 C 1075.20 454.12, 1074.00 454.79, 1071.66 455.97 C 1069.31 457.15, 1067.81 457.66, 1065.54 458.82 C 1063.27 459.99, 1062.01 460.63, 1060.31 461.79 C 1058.61 462.95, 1057.94 463.56, 1057.04 464.63 C 1056.14 465.70, 1055.82 466.20, 1055.82 467.12 C 1055.83 468.03, 1056.28 468.76, 1057.05 469.23"
        stroke="#000000"
        fill="none"
        stroke-width="3"
    />
    <path
        d="M 1148.62,455.42 C 1148.71 454.50, 1148.41 453.94, 1147.61 453.05 C 1146.81 452.16, 1146.22 451.57, 1144.61 450.95 C 1143.00 450.33, 1141.77 450.03, 1139.55 449.96 C 1137.32 449.89, 1136.11 450.04, 1133.49 450.60 C 1130.87 451.15, 1129.39 451.54, 1126.44 452.76 C 1123.50 453.97, 1121.80 454.93, 1118.75 456.68 C 1115.71 458.43, 1114.05 459.51, 1111.22 461.52 C 1108.40 463.53, 1106.77 464.58, 1104.63 466.72 C 1102.48 468.86, 1101.63 470.09, 1100.50 472.23 C 1099.37 474.37, 1099.04 475.44, 1098.98 477.42 C 1098.93 479.41, 1099.21 480.55, 1100.24 482.16 C 1101.26 483.77, 1102.16 484.56, 1104.09 485.48 C 1106.01 486.40, 1107.26 486.68, 1109.85 486.77 C 1112.44 486.87, 1114.02 486.77, 1117.03 485.95 C 1120.04 485.12, 1121.71 484.21, 1124.90 482.66 C 1128.10 481.10, 1129.86 480.10, 1133.02 478.17 C 1136.18 476.25, 1137.83 475.11, 1140.70 473.02 C 1143.58 470.93, 1145.16 469.84, 1147.40 467.74 C 1149.65 465.65, 1150.82 464.49, 1151.95 462.55 C 1153.08 460.60, 1153.35 459.34, 1153.06 458.02 C 1152.78 456.69, 1151.90 456.06, 1150.52 455.93 C 1149.14 455.80, 1147.90 456.12, 1146.17 457.36 C 1144.44 458.61, 1143.31 459.85, 1141.88 462.14 C 1140.44 464.43, 1139.93 466.19, 1138.99 468.80 C 1138.06 471.42, 1137.57 472.80, 1137.19 475.20 C 1136.80 477.61, 1136.74 478.84, 1137.07 480.83 C 1137.40 482.82, 1137.77 483.73, 1138.85 485.15 C 1139.94 486.58, 1140.78 487.21, 1142.49 487.94 C 1144.21 488.68, 1145.32 488.89, 1147.42 488.81 C 1149.52 488.73, 1150.70 488.35, 1153.01 487.54 C 1155.32 486.74, 1156.57 486.19, 1158.97 484.79 C 1161.38 483.39, 1162.66 482.43, 1165.03 480.55 C 1167.40 478.67, 1168.59 477.53, 1170.82 475.41 C 1173.06 473.28, 1174.22 472.10, 1176.21 469.90 C 1178.21 467.71, 1179.17 466.47, 1180.79 464.43 C 1182.41 462.40, 1183.25 461.46, 1184.31 459.73 C 1185.37 457.99, 1186.01 457.05, 1186.09 455.75 C 1186.17 454.45, 1185.65 453.60, 1184.70 453.23 C 1183.75 452.86, 1182.73 453.03, 1181.33 453.89 C 1179.94 454.75, 1179.19 455.67, 1177.74 457.55 C 1176.29 459.42, 1175.48 460.91, 1174.10 463.28 C 1172.71 465.66, 1171.95 467.24, 1170.80 469.44 C 1169.66 471.63, 1169.00 472.62, 1168.39 474.24 C 1167.77 475.87, 1167.49 476.51, 1167.74 477.58 C 1167.99 478.65, 1168.53 479.32, 1169.64 479.57 C 1170.76 479.83, 1171.80 479.76, 1173.32 478.83 C 1174.84 477.91, 1175.67 476.92, 1177.26 474.93 C 1178.86 472.94, 1179.38 471.30, 1181.29 468.87 C 1183.20 466.44, 1184.45 465.05, 1186.82 462.77 C 1189.19 460.49, 1190.55 459.27, 1193.13 457.46 C 1195.71 455.66, 1197.19 454.91, 1199.74 453.73 C 1202.29 452.56, 1203.70 452.16, 1205.86 451.59 C 1208.03 451.03, 1209.01 450.86, 1210.57 450.90 C 1212.12 450.94, 1212.71 451.17, 1213.65 451.81 C 1214.58 452.45, 1214.94 452.92, 1215.26 454.11 C 1215.58 455.30, 1215.52 456.01, 1215.25 457.75 C 1214.98 459.49, 1214.56 460.63, 1213.89 462.83 C 1213.23 465.03, 1212.75 466.42, 1211.91 468.75 C 1211.08 471.09, 1210.47 472.34, 1209.72 474.50 C 1208.97 476.65, 1208.55 477.77, 1208.16 479.53 C 1207.78 481.28, 1207.71 482.07, 1207.81 483.27 C 1207.90 484.48, 1208.24 484.95, 1208.63 485.56 C 1209.03 486.16, 1209.36 486.22, 1209.79 486.28 C 1210.22 486.35, 1210.46 486.06, 1210.80 485.88 C 1211.13 485.70, 1211.13 485.74, 1211.47 485.37 C 1211.80 485.00, 1212.04 484.83, 1212.46 484.02 C 1212.88 483.21, 1212.90 482.71, 1213.56 481.31 C 1214.22 479.91, 1214.77 479.03, 1215.76 477.02 C 1216.75 475.00, 1217.51 473.72, 1218.50 471.25 C 1219.48 468.78, 1220.06 467.29, 1220.69 464.65 C 1221.33 462.02, 1221.73 460.59, 1221.66 458.05 C 1221.59 455.52, 1221.38 454.08, 1220.34 452.00 C 1219.31 449.92, 1218.34 448.93, 1216.49 447.67 C 1214.64 446.40, 1213.49 446.02, 1211.10 445.66 C 1208.72 445.30, 1207.32 445.30, 1204.55 445.86 C 1201.78 446.43, 1200.17 447.07, 1197.25 448.48 C 1194.34 449.89, 1192.81 450.92, 1189.95 452.92 C 1187.10 454.92, 1185.69 456.20, 1182.97 458.47 C 1180.25 460.75, 1178.81 462.05, 1176.37 464.30 C 1173.93 466.55, 1172.45 467.66, 1170.78 469.72 C 1169.11 471.79, 1168.57 472.98, 1168.04 474.63 C 1167.50 476.28, 1167.69 477.07, 1168.12 477.99 C 1168.54 478.91, 1169.13 479.30, 1170.16 479.22 C 1171.19 479.14, 1171.93 478.79, 1173.26 477.60 C 1174.59 476.41, 1175.25 475.27, 1176.79 473.29 C 1178.33 471.31, 1179.35 469.97, 1180.96 467.71 C 1182.56 465.45, 1183.73 464.14, 1184.81 461.99 C 1185.90 459.83, 1186.25 458.60, 1186.38 456.94 C 1186.51 455.28, 1186.20 454.42, 1185.46 453.69 C 1184.72 452.96, 1183.91 452.82, 1182.70 453.29 C 1181.50 453.75, 1180.80 454.57, 1179.44 456.01 C 1178.08 457.44, 1177.48 458.54, 1175.89 460.46 C 1174.30 462.38, 1173.37 463.55, 1171.49 465.61 C 1169.61 467.67, 1168.61 468.85, 1166.50 470.77 C 1164.39 472.69, 1163.16 473.60, 1160.97 475.20 C 1158.77 476.79, 1157.59 477.57, 1155.50 478.73 C 1153.42 479.90, 1152.34 480.30, 1150.56 481.04 C 1148.78 481.77, 1147.91 482.04, 1146.59 482.41 C 1145.26 482.78, 1144.76 482.86, 1143.93 482.87 C 1143.09 482.88, 1142.75 482.92, 1142.41 482.46 C 1142.07 482.00, 1142.05 481.69, 1142.22 480.56 C 1142.39 479.43, 1142.55 478.53, 1143.26 476.81 C 1143.97 475.09, 1144.55 473.98, 1145.77 471.96 C 1146.99 469.94, 1148.15 468.76, 1149.36 466.71 C 1150.57 464.66, 1151.26 463.43, 1151.82 461.71 C 1152.37 459.98, 1152.40 459.03, 1152.13 458.07 C 1151.86 457.10, 1151.40 456.70, 1150.46 456.87 C 1149.52 457.05, 1148.86 457.65, 1147.42 458.94 C 1145.97 460.24, 1145.23 461.42, 1143.24 463.36 C 1141.24 465.31, 1140.04 466.65, 1137.44 468.67 C 1134.84 470.70, 1133.23 471.78, 1130.24 473.49 C 1127.26 475.20, 1125.51 476.08, 1122.53 477.22 C 1119.55 478.36, 1117.91 478.64, 1115.36 479.20 C 1112.80 479.76, 1111.63 479.85, 1109.74 480.01 C 1107.85 480.18, 1107.08 480.14, 1105.90 480.03 C 1104.73 479.92, 1104.37 479.90, 1103.88 479.46 C 1103.38 479.03, 1103.21 478.72, 1103.43 477.86 C 1103.66 476.99, 1103.89 476.46, 1105.00 475.13 C 1106.11 473.81, 1107.04 473.01, 1108.97 471.23 C 1110.90 469.46, 1112.11 468.11, 1114.64 466.25 C 1117.17 464.39, 1118.78 463.39, 1121.62 461.93 C 1124.45 460.48, 1126.17 459.89, 1128.81 458.97 C 1131.46 458.05, 1132.76 457.74, 1134.86 457.34 C 1136.96 456.94, 1137.75 456.91, 1139.31 456.97 C 1140.86 457.03, 1141.49 457.43, 1142.64 457.63 C 1143.79 457.83, 1144.14 457.96, 1145.05 457.96 C 1145.96 457.95, 1146.47 458.14, 1147.19 457.63 C 1147.90 457.12, 1148.54 456.33, 1148.62 455.42"
        stroke="#000000"
        fill="none"
        stroke-width="3"
    />
    <path
        d="M 1277.95,461.30 C 1278.38 460.48, 1278.44 459.75, 1277.99 458.77 C 1277.55 457.80, 1276.94 457.13, 1275.71 456.41 C 1274.49 455.69, 1273.58 455.43, 1271.87 455.16 C 1270.16 454.89, 1269.25 454.82, 1267.16 455.05 C 1265.08 455.29, 1263.85 455.51, 1261.46 456.34 C 1259.08 457.18, 1257.76 457.73, 1255.25 459.23 C 1252.74 460.73, 1251.36 461.85, 1248.92 463.83 C 1246.48 465.82, 1245.12 466.91, 1243.08 469.16 C 1241.03 471.41, 1240.03 472.74, 1238.69 475.10 C 1237.35 477.45, 1236.76 478.72, 1236.37 480.93 C 1235.98 483.14, 1236.04 484.29, 1236.75 486.15 C 1237.46 488.01, 1238.20 489.05, 1239.92 490.23 C 1241.64 491.42, 1242.92 491.84, 1245.35 492.07 C 1247.77 492.30, 1249.24 492.16, 1252.04 491.37 C 1254.85 490.58, 1256.35 489.78, 1259.37 488.12 C 1262.38 486.47, 1263.98 485.35, 1267.11 483.09 C 1270.25 480.84, 1271.93 479.53, 1275.03 476.84 C 1278.14 474.16, 1279.80 472.62, 1282.66 469.66 C 1285.51 466.71, 1286.84 465.15, 1289.32 462.09 C 1291.79 459.02, 1292.97 457.43, 1295.03 454.34 C 1297.09 451.25, 1298.02 449.57, 1299.61 446.64 C 1301.20 443.70, 1302.23 442.18, 1302.96 439.66 C 1303.68 437.14, 1303.78 435.67, 1303.24 434.03 C 1302.71 432.39, 1301.79 431.61, 1300.26 431.48 C 1298.74 431.35, 1297.41 431.68, 1295.61 433.37 C 1293.82 435.06, 1293.06 436.82, 1291.27 439.93 C 1289.48 443.03, 1288.57 445.20, 1286.69 448.90 C 1284.80 452.60, 1283.67 454.75, 1281.83 458.42 C 1279.98 462.08, 1278.99 463.92, 1277.46 467.22 C 1275.92 470.51, 1275.07 472.01, 1274.15 474.89 C 1273.23 477.77, 1273.07 479.20, 1272.86 481.61 C 1272.64 484.02, 1272.70 485.12, 1273.08 486.95 C 1273.47 488.78, 1274.00 489.69, 1274.78 490.78 C 1275.57 491.87, 1276.21 492.10, 1277.00 492.40 C 1277.79 492.70, 1278.25 492.58, 1278.73 492.29 C 1279.21 492.00, 1279.30 491.41, 1279.41 490.93 C 1279.52 490.45, 1279.38 490.40, 1279.30 489.90 C 1279.22 489.41, 1279.26 489.20, 1279.01 488.43 C 1278.76 487.66, 1278.23 487.29, 1278.06 486.05 C 1277.89 484.81, 1277.86 484.13, 1278.16 482.23 C 1278.45 480.33, 1278.76 479.15, 1279.52 476.54 C 1280.29 473.94, 1280.67 472.39, 1281.98 469.21 C 1283.30 466.02, 1284.23 464.15, 1286.10 460.62 C 1287.96 457.08, 1289.14 454.96, 1291.30 451.51 C 1293.46 448.07, 1294.98 446.26, 1296.88 443.39 C 1298.79 440.51, 1299.97 439.10, 1300.82 437.12 C 1301.67 435.14, 1301.38 434.16, 1301.13 433.47 C 1300.88 432.78, 1300.35 432.86, 1299.57 433.68 C 1298.80 434.50, 1298.23 435.46, 1297.26 437.57 C 1296.28 439.68, 1295.96 441.38, 1294.70 444.22 C 1293.44 447.05, 1292.74 448.75, 1290.94 451.75 C 1289.15 454.75, 1288.04 456.28, 1285.73 459.22 C 1283.41 462.17, 1282.13 463.67, 1279.38 466.46 C 1276.63 469.26, 1275.01 470.73, 1271.97 473.18 C 1268.93 475.64, 1267.25 476.85, 1264.20 478.75 C 1261.14 480.64, 1259.50 481.47, 1256.69 482.65 C 1253.89 483.84, 1252.45 484.07, 1250.19 484.68 C 1247.93 485.30, 1246.95 485.51, 1245.38 485.72 C 1243.80 485.93, 1243.21 485.94, 1242.33 485.73 C 1241.44 485.52, 1241.13 485.35, 1240.95 484.67 C 1240.77 484.00, 1240.83 483.60, 1241.43 482.37 C 1242.02 481.13, 1242.62 480.21, 1243.92 478.47 C 1245.22 476.74, 1246.08 475.58, 1247.91 473.70 C 1249.74 471.83, 1250.88 470.76, 1253.07 469.10 C 1255.26 467.43, 1256.70 466.63, 1258.86 465.40 C 1261.03 464.16, 1262.04 463.64, 1263.89 462.92 C 1265.74 462.19, 1266.72 462.01, 1268.11 461.76 C 1269.50 461.51, 1269.97 461.52, 1270.84 461.65 C 1271.71 461.79, 1271.85 462.18, 1272.47 462.45 C 1273.10 462.72, 1273.29 462.92, 1273.96 463.01 C 1274.64 463.10, 1275.05 463.24, 1275.84 462.90 C 1276.64 462.56, 1277.52 462.13, 1277.95 461.30"
        stroke="#000000"
        fill="none"
        stroke-width="3"
    />
    <path
        d="M 1306.70,480.13 C 1307.21 480.93, 1307.82 481.27, 1309.29 481.66 C 1310.75 482.05, 1311.78 482.24, 1314.04 482.07 C 1316.30 481.90, 1317.85 481.65, 1320.59 480.82 C 1323.34 479.99, 1324.84 479.13, 1327.76 477.93 C 1330.68 476.72, 1332.39 476.11, 1335.20 474.80 C 1338.00 473.49, 1339.46 472.80, 1341.79 471.39 C 1344.11 469.97, 1345.24 469.28, 1346.84 467.74 C 1348.44 466.19, 1349.22 465.36, 1349.78 463.67 C 1350.34 461.98, 1350.31 460.86, 1349.64 459.27 C 1348.98 457.68, 1348.29 456.75, 1346.46 455.71 C 1344.63 454.67, 1343.25 454.14, 1340.48 454.08 C 1337.71 454.02, 1335.92 454.46, 1332.62 455.42 C 1329.31 456.38, 1327.44 457.24, 1323.94 458.87 C 1320.45 460.51, 1318.45 461.53, 1315.14 463.58 C 1311.82 465.63, 1310.05 466.81, 1307.36 469.12 C 1304.68 471.44, 1303.29 472.68, 1301.72 475.16 C 1300.14 477.65, 1299.73 479.06, 1299.51 481.55 C 1299.29 484.04, 1299.51 485.39, 1300.60 487.64 C 1301.70 489.88, 1302.58 491.14, 1304.97 492.77 C 1307.35 494.40, 1309.14 494.96, 1312.54 495.79 C 1315.94 496.62, 1317.98 496.71, 1321.96 496.93 C 1325.94 497.15, 1328.19 497.08, 1332.43 496.90 C 1336.67 496.73, 1339.03 496.51, 1343.15 496.07 C 1347.27 495.62, 1349.36 495.26, 1353.02 494.68 C 1356.68 494.11, 1358.60 494.05, 1361.44 493.18 C 1364.29 492.31, 1365.59 491.46, 1367.27 490.32 C 1368.95 489.18, 1369.51 488.38, 1369.85 487.49 C 1370.20 486.61, 1369.85 486.14, 1369.00 485.91 C 1368.14 485.67, 1367.41 485.98, 1365.58 486.32 C 1363.75 486.67, 1362.56 486.92, 1359.86 487.63 C 1357.17 488.34, 1355.55 489.10, 1352.11 489.87 C 1348.66 490.64, 1346.60 491.02, 1342.64 491.49 C 1338.68 491.95, 1336.35 492.14, 1332.30 492.19 C 1328.26 492.25, 1326.06 492.20, 1322.41 491.75 C 1318.77 491.30, 1316.95 490.79, 1314.10 489.95 C 1311.25 489.11, 1310.00 488.49, 1308.16 487.54 C 1306.32 486.59, 1305.68 486.28, 1304.90 485.21 C 1304.12 484.14, 1303.96 483.55, 1304.24 482.17 C 1304.53 480.79, 1305.00 480.10, 1306.33 478.31 C 1307.67 476.51, 1308.63 475.26, 1310.94 473.20 C 1313.24 471.15, 1314.83 469.87, 1317.86 468.03 C 1320.90 466.18, 1322.86 465.22, 1326.12 463.97 C 1329.37 462.72, 1331.25 462.31, 1334.15 461.77 C 1337.04 461.24, 1338.49 461.43, 1340.59 461.29 C 1342.70 461.16, 1343.51 461.15, 1344.66 461.10 C 1345.82 461.06, 1346.09 460.97, 1346.36 461.08 C 1346.64 461.19, 1346.63 461.19, 1346.03 461.63 C 1345.43 462.08, 1344.85 462.45, 1343.38 463.30 C 1341.90 464.15, 1340.83 464.76, 1338.67 465.90 C 1336.51 467.03, 1335.21 467.82, 1332.56 468.97 C 1329.92 470.13, 1328.26 470.76, 1325.45 471.66 C 1322.65 472.56, 1321.08 472.84, 1318.55 473.48 C 1316.02 474.12, 1314.74 474.31, 1312.81 474.85 C 1310.89 475.39, 1310.15 475.62, 1308.94 476.18 C 1307.72 476.74, 1307.19 476.86, 1306.74 477.65 C 1306.29 478.44, 1306.19 479.32, 1306.70 480.13"
        stroke="#000000"
        fill="none"
        stroke-width="3"
    />
    <path
        d="M 1384.87,466.58 C 1383.98 466.65, 1383.70 467.04, 1382.81 467.85 C 1381.92 468.65, 1381.38 469.10, 1380.40 470.60 C 1379.42 472.10, 1378.88 473.31, 1377.92 475.36 C 1376.97 477.40, 1376.59 478.65, 1375.62 480.82 C 1374.65 482.98, 1373.97 484.18, 1373.08 486.18 C 1372.18 488.19, 1371.46 489.25, 1371.14 490.84 C 1370.81 492.43, 1370.93 493.20, 1371.45 494.13 C 1371.98 495.06, 1372.66 495.45, 1373.77 495.49 C 1374.89 495.53, 1375.78 495.36, 1377.03 494.33 C 1378.29 493.30, 1378.88 492.29, 1380.06 490.36 C 1381.24 488.43, 1381.57 487.01, 1382.93 484.68 C 1384.29 482.35, 1385.01 480.99, 1386.86 478.70 C 1388.71 476.40, 1389.87 475.20, 1392.19 473.20 C 1394.51 471.19, 1395.88 470.19, 1398.45 468.67 C 1401.03 467.16, 1402.47 466.55, 1405.06 465.64 C 1407.65 464.74, 1408.96 464.51, 1411.42 464.15 C 1413.87 463.79, 1415.13 463.76, 1417.31 463.85 C 1419.50 463.94, 1420.51 464.21, 1422.34 464.59 C 1424.17 464.98, 1425.11 465.39, 1426.47 465.78 C 1427.84 466.18, 1428.30 466.34, 1429.16 466.57 C 1430.01 466.79, 1430.19 466.84, 1430.76 466.90 C 1431.32 466.97, 1431.51 467.12, 1431.99 466.90 C 1432.47 466.68, 1432.95 466.31, 1433.14 465.79 C 1433.33 465.27, 1433.27 464.98, 1432.94 464.30 C 1432.62 463.62, 1432.41 463.13, 1431.52 462.37 C 1430.62 461.61, 1430.06 461.23, 1428.49 460.50 C 1426.92 459.78, 1425.85 459.28, 1423.67 458.76 C 1421.48 458.23, 1420.20 458.00, 1417.57 457.88 C 1414.94 457.76, 1413.41 457.72, 1410.51 458.17 C 1407.61 458.62, 1406.05 459.02, 1403.06 460.14 C 1400.07 461.26, 1398.47 462.05, 1395.56 463.78 C 1392.65 465.50, 1391.16 466.62, 1388.50 468.77 C 1385.84 470.93, 1384.57 472.20, 1382.24 474.53 C 1379.92 476.87, 1378.75 478.15, 1376.87 480.46 C 1374.99 482.78, 1374.03 484.04, 1372.85 486.12 C 1371.67 488.21, 1371.21 489.27, 1370.97 490.88 C 1370.73 492.50, 1371.04 493.31, 1371.64 494.19 C 1372.25 495.06, 1372.98 495.39, 1373.98 495.27 C 1374.98 495.14, 1375.60 494.75, 1376.65 493.56 C 1377.69 492.37, 1378.12 491.23, 1379.22 489.32 C 1380.32 487.41, 1381.00 486.16, 1382.15 484.03 C 1383.29 481.90, 1383.95 480.73, 1384.93 478.68 C 1385.92 476.64, 1386.50 475.52, 1387.07 473.80 C 1387.64 472.08, 1387.76 471.33, 1387.79 470.07 C 1387.82 468.81, 1387.80 468.19, 1387.22 467.49 C 1386.63 466.79, 1385.75 466.51, 1384.87 466.58"
        stroke="#000000"
        fill="none"
        stroke-width="3"
    />
</svg>